<?xml version="1.0" encoding="UTF-8" standalone="no"?>
<!DOCTYPE svg PUBLIC "-//W3C//DTD SVG 1.1//EN" "http://www.w3.org/Graphics/SVG/1.1/DTD/svg11.dtd">
<svg width="62.40" height="93.60" viewBox="0.00 0.00 260.00 390.00" xmlns="http://www.w3.org/2000/svg" xmlns:xlink="http://www.w3.org/1999/xlink">
<g stroke-linecap="round" id="Layer_2">
<path d="M152.89,102.48 C151.79,102.49 148.76,102.50 148.35,102.48 C147.58,102.43 146.69,103.31 143.39,103.31 C141.81,103.23 140.91,104.13 137.60,104.13 C136.12,104.06 135.49,104.82 135.12,104.96 C134.73,105.12 132.78,104.87 132.64,104.96 C131.81,105.53 127.30,107.60 126.03,107.44 C125.32,107.35 124.75,108.13 124.38,108.26 C123.97,108.42 122.04,108.18 121.90,108.26 C121.77,108.34 120.76,109.34 120.66,109.50 C120.40,109.91 113.84,111.47 113.64,111.57 C111.97,112.41 110.46,113.96 109.50,114.05 C109.47,114.05 106.78,116.74 106.61,117.77 C106.56,118.18 104.09,118.43 104.13,121.07 C104.13,121.07 101.62,123.55 101.65,124.38 C101.65,124.40 100.00,126.03 98.76,127.27 C98.34,127.67 97.41,130.15 97.52,130.99 C97.61,131.70 96.84,132.28 96.69,132.64 C96.57,132.95 96.82,135.66 96.69,135.95 C96.54,136.31 95.99,136.41 95.87,136.78 C95.70,137.30 96.06,137.91 95.87,138.43 C95.73,138.80 95.14,138.88 95.04,139.26 C94.97,139.54 95.10,144.52 95.04,145.87 C94.99,147.41 95.72,147.99 95.87,148.35 C95.99,148.63 95.74,151.37 95.87,151.65 C96.02,152.01 96.85,152.87 96.69,154.13 C96.60,154.84 97.41,155.41 97.52,155.79 C97.52,157.37 99.41,161.20 100.41,161.98 C100.81,162.28 100.86,162.66 100.83,164.05 C102.46,164.57 102.48,164.89 103.31,166.53 C103.31,166.63 104.18,169.35 104.55,169.42 C105.73,169.42 105.79,169.86 106.61,171.49 C106.74,171.73 106.61,172.31 107.44,173.14 C107.85,173.55 108.68,173.55 109.92,174.79 C110.92,175.93 115.39,176.87 115.70,177.27 C116.63,178.47 116.96,178.52 118.60,179.34 C120.96,179.34 121.57,180.79 121.90,181.82 C123.29,181.78 123.67,181.83 123.97,182.23 C124.38,182.64 125.10,183.46 125.21,183.47 C126.03,183.47 126.97,183.48 127.27,183.88 C127.69,184.30 128.41,185.11 128.51,185.12 C129.05,185.21 130.90,185.06 130.99,185.12 C131.31,185.35 132.12,186.08 133.47,185.95 C134.84,185.82 135.54,186.36 135.95,186.78 C136.24,186.90 138.95,186.65 139.26,186.78 C139.62,186.92 140.50,187.60 140.91,187.60 C141.25,187.79 142.15,188.59 143.39,188.43 C144.10,188.34 144.68,189.12 145.04,189.26 C145.45,189.42 147.40,189.17 147.52,189.26 C147.83,189.49 148.76,190.24 150.00,190.08 C150.70,189.99 152.94,191.61 153.31,191.74 C153.83,191.91 157.13,192.72 158.26,192.56 C158.96,192.47 160.32,193.55 163.22,193.39 C163.98,193.34 164.50,194.10 164.88,194.21 C165.40,194.37 166.01,194.02 166.53,194.21 C166.89,194.35 166.98,194.95 167.36,195.04 C167.72,195.13 186.84,195.03 187.19,195.04 C187.98,195.07 188.80,194.23 188.84,194.21 C189.67,194.21 191.90,193.51 192.15,193.39 C193.78,192.56 194.21,192.51 194.21,191.32 C194.29,190.95 196.69,190.08 197.93,189.26 C198.06,189.19 199.12,187.30 199.59,186.78 C200.21,186.09 201.54,185.91 201.65,184.71 C201.66,184.68 203.86,182.51 204.96,180.58 C204.96,180.58 207.85,176.86 208.68,176.03 C209.09,175.65 209.79,174.09 209.92,173.14 C209.92,173.14 213.12,169.14 213.22,168.18 C213.27,167.69 213.87,167.14 214.88,166.53 C214.75,165.22 215.51,164.39 215.70,164.05 C215.70,163.64 216.40,162.77 216.53,162.40 C216.71,161.88 216.54,160.64 216.94,160.33 C217.36,159.92 218.17,159.20 218.18,159.09 C218.22,158.54 219.02,155.05 219.01,154.96 C218.92,154.25 219.68,153.66 219.83,153.31 C219.90,153.16 219.90,127.00 219.83,126.86 C219.67,126.51 218.85,125.64 219.01,124.38 C219.11,123.58 217.36,121.97 217.36,121.90 C217.14,119.87 215.69,116.92 214.46,115.70 C214.06,115.35 213.21,113.62 213.22,112.81 C213.22,112.81 210.74,110.36 210.33,109.09 C208.96,109.21 208.23,108.36 207.85,108.26 C207.57,108.20 202.89,108.26 201.24,108.26 C199.73,108.32 198.54,107.56 197.93,107.44 C197.59,107.37 192.98,107.44 191.32,107.44 C189.77,107.49 185.07,105.10 184.71,104.96 C184.30,104.80 182.35,105.05 182.23,104.96 C181.92,104.72 181.78,104.25 181.40,104.13 C180.88,103.97 180.28,104.30 179.75,104.13 C178.93,103.31 176.86,102.89 176.45,102.48 C175.92,102.31 175.31,102.67 174.79,102.48 C174.43,102.34 174.35,101.74 173.97,101.65 C173.17,101.47 169.89,101.71 169.83,101.65 C168.87,100.77 166.82,100.85 160.74,100.83 C159.26,100.83 156.14,100.85 155.79,100.83 C155.03,100.77 154.50,101.52 154.13,101.65 C153.72,101.81 151.78,101.56 151.65,101.65 C151.34,101.88 150.54,102.60 149.59,102.48" fill="none" stroke="rgb(0, 0, 0)" stroke-width="5.00" stroke-opacity="1.00" stroke-linejoin="round"/>
<path d="M122.31,136.36 C122.30,137.86 122.27,142.01 122.31,142.56 C122.40,143.61 123.84,143.82 124.79,145.04 C125.10,145.45 126.34,145.28 126.86,145.45 C127.23,145.58 128.97,146.99 129.34,147.11 C129.87,147.27 130.47,146.94 130.99,147.11 C131.36,147.23 132.10,148.06 133.47,147.93 C134.84,147.81 135.60,148.59 135.95,148.76 C136.04,148.81 139.83,148.67 140.91,148.76 C141.68,148.81 141.83,148.68 143.39,147.11 C145.87,144.63 146.73,144.63 147.11,144.21 C147.34,143.96 152.00,139.40 152.07,139.26 C152.18,139.00 152.11,138.09 152.48,138.02 C153.53,137.81 153.97,137.33 154.96,136.36 C156.96,138.39 157.85,139.24 157.85,139.26 C157.70,141.26 161.57,142.98 163.22,143.80 C163.64,143.96 165.59,143.71 165.70,143.80 C166.02,144.02 166.67,144.69 168.18,144.63 C170.01,144.56 178.25,144.66 178.51,144.21 C179.52,142.15 183.27,141.75 183.47,139.26 C183.48,139.01 184.09,138.76 185.12,138.43 C185.00,137.10 185.80,136.31 185.95,135.95 C186.11,135.56 185.86,133.62 185.95,133.47 C186.03,133.35 186.30,133.07 186.78,132.64 C186.69,132.17 180.62,132.20 180.58,132.23 C180.27,132.47 179.65,133.10 178.10,133.06 C176.45,133.06 174.00,133.03 173.97,133.06 C173.00,133.94 170.90,133.86 164.88,133.88 C161.75,133.88 160.78,133.92 160.74,133.88 C159.78,133.00 158.00,133.07 151.14,133.07 C143.11,133.07 132.74,132.99 132.64,133.06 C132.34,133.29 132.19,133.77 131.82,133.88 C131.29,134.04 130.69,133.71 130.17,133.88 C129.80,134.01 129.02,134.83 127.69,134.71 C127.69,134.71 127.27,135.54 127.27,135.54" fill="none" stroke="rgb(0, 0, 0)" stroke-width="5.00" stroke-opacity="1.00" stroke-linejoin="round"/>
<path d="M147.11,166.94 C147.07,167.98 147.11,168.21 147.52,168.60 C148.53,169.51 150.30,169.28 150.41,169.83 C150.61,170.86 151.81,172.03 152.48,171.90 C153.12,171.77 153.76,172.61 154.13,172.73 C154.66,172.88 155.27,172.53 155.79,172.73 C156.15,172.86 156.23,173.46 156.61,173.55 C156.91,173.63 166.68,173.58 166.94,173.14 C167.56,171.99 169.15,171.76 169.83,171.07 C170.25,170.66 170.20,170.11 170.25,169.83 C170.32,169.47 172.56,168.91 172.73,168.18 C172.97,167.09 173.41,166.69 174.38,165.70 C174.38,165.70 174.38,165.29 174.38,165.29" fill="none" stroke="rgb(0, 0, 0)" stroke-width="5.00" stroke-opacity="1.00" stroke-linejoin="round"/>
<path d="M182.64,196.69 C182.98,196.57 185.46,199.14 185.54,199.17 C185.79,199.29 186.71,199.22 186.78,199.59 C186.78,200.75 188.27,201.07 188.43,201.24 C189.53,202.41 191.72,204.50 191.74,204.55 C191.82,204.81 191.78,205.71 192.15,205.79 C193.34,205.79 193.49,207.13 194.21,207.85 C194.35,208.09 194.21,208.69 194.63,209.09 C195.87,210.33 199.17,214.46 199.17,214.46 C199.45,215.64 199.80,215.79 200.83,216.12 C200.79,217.51 200.84,217.88 201.24,218.18 C201.65,218.60 202.46,219.32 202.48,219.42 C202.57,219.96 202.42,221.79 202.48,221.90 C202.56,222.03 203.55,223.04 203.72,223.14 C204.10,223.39 204.21,223.94 204.13,225.21 C204.08,225.91 205.62,229.07 204.96,237.60 C204.90,238.34 205.63,238.90 205.79,239.26 C205.85,239.41 205.79,255.74 205.79,255.79 C205.73,256.53 206.61,257.44 206.61,260.74 C206.54,262.23 207.27,262.87 207.44,263.22 C207.50,263.36 207.48,278.87 207.44,278.93 C206.61,279.94 205.78,282.22 205.79,282.23 C205.79,282.25 204.13,283.88 202.89,285.12 C202.48,285.52 202.50,286.20 202.48,286.36 C202.48,286.40 201.24,287.60 200.41,288.43 C200.00,288.81 200.00,290.63 198.76,290.91 C198.49,290.97 197.59,290.98 197.52,291.32 C197.20,292.88 197.08,293.01 195.45,293.39 C195.45,293.39 194.03,294.84 192.98,295.04 C192.83,295.07 191.79,297.00 191.32,297.52 C190.62,298.29 190.26,298.46 189.67,298.35 C189.65,298.34 185.89,302.11 185.95,302.48" fill="none" stroke="rgb(0, 0, 0)" stroke-width="5.00" stroke-opacity="1.00" stroke-linejoin="round"/>
<path d="M170.25,207.44 C175.04,207.41 177.21,207.50 178.10,206.61 C178.24,206.55 193.75,206.57 193.80,206.61 C194.10,206.86 194.73,207.49 196.28,207.44 C197.93,207.44 201.14,207.39 201.24,207.44 C201.59,207.61 202.23,208.33 203.72,208.26 C206.06,208.18 208.24,209.15 209.09,210.33 C209.13,210.39 209.17,231.65 209.09,231.82 C207.15,236.07 205.84,237.78 205.79,238.43 C205.77,238.67 205.16,238.93 204.13,239.26 C204.18,240.98 202.34,243.53 201.65,244.21 C201.52,244.35 199.28,245.15 199.17,245.87 C199.03,246.84 197.93,247.93 197.11,247.93 C197.11,247.93 192.28,251.98 191.32,252.07 C191.29,252.07 189.77,253.54 189.26,254.13 C189.12,254.29 187.09,254.56 185.95,255.79 C185.59,256.19 179.30,259.39 178.93,259.50 C178.10,259.50 175.89,260.30 175.62,260.33 C175.56,260.34 173.10,263.03 167.36,264.46 C167.02,264.66 166.90,265.17 166.53,265.29 C166.00,265.45 165.40,265.12 164.88,265.29 C164.51,265.41 163.66,266.28 162.40,266.12 C161.69,266.03 160.40,267.06 159.09,266.94 C158.88,267.56 158.54,268.59 158.26,268.60 C157.71,268.61 155.37,269.42 154.96,269.42 C154.62,269.61 153.72,270.41 152.48,270.25 C152.06,270.19 150.67,271.19 150.41,271.07" fill="none" stroke="rgb(0, 0, 0)" stroke-width="5.00" stroke-opacity="1.00" stroke-linejoin="round"/>
<path d="M167.77,211.57 C167.77,211.57 167.77,212.81 167.77,212.81 C166.04,213.72 159.54,220.19 159.50,220.25 C158.68,221.07 156.61,223.14 153.31,226.45 C152.59,227.20 151.21,227.72 149.57,229.34 C148.12,230.76 147.59,231.40 147.52,231.40 C146.69,231.40 145.81,231.41 145.45,231.82 C144.63,232.64 143.45,233.88 143.39,233.88 C142.84,233.91 141.63,233.90 141.32,234.30 C140.77,235.00 134.24,238.02 133.88,238.43 C132.66,239.65 130.63,240.50 127.69,242.15 C127.45,242.28 126.35,242.20 126.03,242.56 C125.83,242.79 123.61,245.48 121.90,245.45 C121.90,245.45 119.45,247.93 118.60,247.93 C118.60,247.93 116.32,250.22 115.29,250.41 C115.25,250.42 114.63,251.10 113.64,252.07 C113.64,252.07 113.22,252.07 113.22,252.07" fill="none" stroke="rgb(0, 0, 0)" stroke-width="5.00" stroke-opacity="1.00" stroke-linejoin="round"/>
<path d="M20.66,194.21 C49.79,194.21 81.33,194.27 81.40,194.21 C81.72,193.98 82.64,193.23 83.88,193.39 C84.59,193.48 85.94,192.40 88.84,192.56 C89.60,192.61 90.14,191.90 90.50,191.74 C90.61,191.68 97.11,191.74 98.76,191.74 C98.76,191.74 99.17,192.98 99.17,192.98 C98.47,193.46 98.19,194.24 98.35,195.45 C98.44,196.16 97.68,196.75 97.52,197.11 C97.46,197.23 97.51,206.95 97.52,207.02 C97.58,207.77 96.84,208.31 96.69,208.68 C96.63,208.85 96.58,213.68 97.93,214.88 C99.16,216.10 100.00,219.42 101.65,221.07 C102.07,221.49 103.46,221.49 104.13,222.73 C104.13,223.55 104.33,224.75 105.37,225.62 C105.76,225.93 106.61,228.41 106.61,228.51 C107.44,230.14 107.44,230.17 108.68,231.40 C108.99,231.68 109.15,233.33 110.74,234.30 C110.73,234.35 111.61,237.12 111.98,237.19 C113.17,237.19 113.23,237.63 114.05,239.26 C114.05,241.06 116.52,243.29 116.53,243.39 C116.53,244.21 116.54,245.15 116.94,245.45 C117.36,245.87 118.17,246.59 118.18,246.69 C118.18,247.52 118.19,248.46 118.60,248.76 C119.79,249.69 119.84,250.02 120.66,251.65 C120.66,253.45 123.12,255.77 123.97,257.44 C124.09,257.69 124.91,259.43 124.79,260.74 C125.73,261.11 126.43,261.22 126.45,261.57 C126.64,265.51 125.74,266.39 125.62,268.18 C125.59,268.59 122.83,269.42 122.73,269.42 C121.90,270.25 119.66,270.94 119.42,271.07 C119.08,271.26 118.42,271.97 116.94,271.90 C114.58,271.81 113.21,272.78 111.98,272.73 C92.48,271.99 86.39,273.60 84.71,273.55 C84.18,273.54 80.00,273.57 79.75,273.55 C78.98,273.51 78.46,274.24 78.10,274.38 C77.92,274.45 75.62,274.38 74.79,274.38 C73.31,274.31 72.67,275.04 72.31,275.21 C72.18,275.27 56.66,275.25 56.61,275.21 C55.56,274.32 53.70,274.40 47.32,274.38 C45.03,274.37 41.20,274.40 40.91,274.38 C40.43,274.34 40.65,273.37 40.50,273.14 C40.30,272.81 39.79,272.69 39.67,272.31 C39.67,271.49 38.80,268.70 37.60,267.77 C37.20,267.46 36.35,263.31 36.36,263.22 C36.45,262.51 35.38,261.17 35.54,258.26 C35.59,257.52 34.02,255.32 33.88,254.96 C33.73,254.55 33.97,252.60 33.88,252.48 C33.65,252.17 33.17,252.03 33.06,251.65 C32.90,251.13 33.23,250.52 33.06,250.00 C32.93,249.63 32.36,249.54 32.23,249.17 C32.04,248.66 32.22,247.42 31.82,247.11 C30.58,245.87 30.45,244.09 29.75,243.39 C29.34,241.74 28.91,239.18 28.51,238.84 C27.32,237.83 27.45,236.32 27.27,235.95 C27.11,235.60 26.57,235.49 26.45,235.12 C26.45,234.30 25.57,231.51 24.38,230.58 C23.98,230.27 24.16,229.03 23.97,228.51 C23.83,228.15 23.27,228.06 23.14,227.69 C22.97,227.16 23.30,226.56 23.14,226.03 C23.02,225.66 21.61,223.92 21.49,223.55 C21.33,223.03 21.68,222.42 21.49,221.90 C21.35,221.53 20.76,221.45 20.66,221.07 C20.58,220.75 20.63,209.64 20.66,209.50 C20.70,209.37 20.84,209.23 21.07,209.09 C21.07,209.09 21.49,209.92 21.49,209.92" fill="none" stroke="rgb(0, 0, 0)" stroke-width="5.00" stroke-opacity="1.00" stroke-linejoin="round"/>
<path d="M42.98,280.17 C43.32,280.07 46.28,283.02 46.28,283.06 C46.37,284.02 48.23,285.90 48.35,285.95 C48.73,286.10 50.86,286.78 51.24,287.19 C53.31,289.26 53.32,289.26 54.96,290.08 C55.21,290.20 58.37,290.92 58.68,291.32 C58.93,291.62 59.73,292.55 59.92,292.56 C60.91,292.65 64.74,292.49 64.88,292.56 C65.29,292.98 65.80,293.44 67.36,293.39 C69.01,293.39 72.22,293.34 72.31,293.39 C72.66,293.56 73.30,294.28 74.79,294.21 C77.15,294.13 78.49,295.10 79.75,295.04 C82.11,294.95 83.48,295.92 84.71,295.87 C85.14,295.85 137.60,295.87 137.60,295.87 C138.36,295.82 138.90,296.54 139.26,296.69 C139.37,296.75 147.67,296.72 147.93,296.28 C148.12,295.94 149.08,295.06 149.17,295.04 C149.58,294.97 152.26,295.14 152.48,295.04 C152.89,294.63 153.59,294.09 154.96,294.21 C156.32,294.34 157.09,293.56 157.44,293.39 C157.55,293.33 167.29,293.40 167.36,293.39 C167.43,293.37 168.18,292.56 168.60,292.15 C168.90,291.74 171.21,291.56 172.31,290.50 C172.46,290.35 172.74,289.94 173.14,289.26 C174.32,289.32 175.05,287.55 175.21,287.19 C175.24,287.12 175.21,284.30 175.21,283.06 C175.17,282.56 171.59,282.75 170.66,281.82 C170.37,281.69 167.64,281.94 167.36,281.82 C167.00,281.66 166.90,281.11 166.53,280.99 C165.98,280.99 165.43,280.99 164.88,280.99 C164.51,280.87 164.42,280.30 164.05,280.17 C163.53,279.98 161.05,279.85 159.92,279.34 C159.78,279.27 158.78,278.26 158.68,278.10 C158.57,277.91 156.51,277.67 155.37,276.45 C155.01,276.03 153.81,275.97 152.89,274.79 C152.58,274.39 148.44,273.54 148.35,273.55 C147.64,273.64 147.06,272.86 146.69,272.73 C146.28,272.57 144.35,272.82 144.21,272.73 C143.89,272.51 142.80,272.03 142.56,271.90 C142.22,271.72 141.59,271.02 140.08,271.07 C139.73,271.09 135.38,271.06 135.12,271.07 C134.35,271.12 133.83,270.39 133.47,270.25 C133.29,270.18 130.99,270.25 130.17,270.25 C128.66,270.32 127.18,269.30 124.79,269.42" fill="none" stroke="rgb(0, 0, 0)" stroke-width="5.00" stroke-opacity="1.00" stroke-linejoin="round"/>
<path d="M36.36,98.35 C36.36,98.35 36.78,98.35 36.78,98.35 C37.82,99.19 41.61,104.33 41.74,104.55 C42.98,106.62 43.82,109.52 45.04,110.74 C45.52,111.17 47.03,116.00 48.76,118.60 C48.90,119.13 48.59,119.72 48.76,120.25 C48.88,120.62 49.71,121.33 49.59,122.31" fill="none" stroke="rgb(0, 0, 0)" stroke-width="5.00" stroke-opacity="1.00" stroke-linejoin="round"/>
<path d="M32.23,102.48 C32.23,102.48 32.23,102.07 32.23,102.07 C32.48,101.69 34.17,100.95 35.12,100.83 C35.12,100.83 36.65,99.26 37.60,99.17 C37.63,99.17 44.55,93.05 46.35,91.25 C46.74,90.86 47.13,90.47 47.52,90.08 C47.52,90.08 47.93,90.08 47.93,90.08" fill="none" stroke="rgb(0, 0, 0)" stroke-width="5.00" stroke-opacity="1.00" stroke-linejoin="round"/>
<path d="M55.37,106.61 C55.37,106.61 56.20,95.45 56.20,95.45 C57.15,95.08 59.56,94.21 60.74,94.21 C61.53,94.22 63.64,96.28 63.64,97.93 C64.39,99.43 66.61,101.78 66.94,101.65" fill="none" stroke="rgb(0, 0, 0)" stroke-width="5.00" stroke-opacity="1.00" stroke-linejoin="round"/>
<path d="M56.20,101.65 C56.20,101.65 56.20,101.24 56.20,101.24 C56.90,100.20 61.63,99.17 61.98,98.76 C62.55,98.11 62.85,96.95 63.22,96.69 C63.22,96.69 63.64,96.69 63.64,96.69" fill="none" stroke="rgb(0, 0, 0)" stroke-width="5.00" stroke-opacity="1.00" stroke-linejoin="round"/>
<path d="M74.38,85.95 C74.26,86.20 75.93,88.74 76.03,88.84 C76.15,89.09 76.72,90.13 76.86,90.50 C77.02,90.91 76.77,92.86 76.86,92.98 C77.74,94.19 77.66,95.97 77.69,97.11 C77.69,97.11 76.45,97.52 76.45,97.52 C76.45,97.52 74.79,95.87 74.79,95.87 C74.79,95.87 74.38,95.87 74.38,95.87" fill="none" stroke="rgb(0, 0, 0)" stroke-width="5.00" stroke-opacity="1.00" stroke-linejoin="round"/>
<path d="M72.73,81.82 C72.73,81.82 73.14,80.99 73.14,80.99 C75.64,81.00 78.06,80.99 78.10,80.99 C78.20,81.00 80.55,83.47 81.82,83.88 C81.86,85.99 81.81,86.48 81.40,86.78 C80.15,87.68 77.11,88.47 76.86,88.84 C76.86,88.84 76.86,89.26 76.86,89.26" fill="none" stroke="rgb(0, 0, 0)" stroke-width="5.00" stroke-opacity="1.00" stroke-linejoin="round"/>
<path d="M119.83,68.60 C119.59,70.52 123.12,73.95 123.97,75.62 C123.97,77.42 126.44,79.65 126.45,79.75 C126.48,80.30 126.26,80.89 126.45,81.40 C126.58,81.77 127.15,81.86 127.27,82.23 C127.27,82.78 127.27,83.33 127.27,83.88 C127.40,84.25 127.97,84.34 128.10,84.71 C128.29,85.23 128.12,86.51 128.51,86.78 C128.60,86.84 128.74,86.97 128.93,87.19 C128.93,87.19 128.93,87.60 128.93,87.60" fill="none" stroke="rgb(0, 0, 0)" stroke-width="5.00" stroke-opacity="1.00" stroke-linejoin="round"/>
<path d="M106.61,76.86 C106.53,74.70 108.99,74.33 109.92,73.14 C110.22,72.74 110.59,72.69 111.98,72.73 C112.50,71.09 113.43,71.03 114.46,70.25 C115.25,69.65 116.67,69.45 116.94,69.42 C117.18,69.41 117.44,68.80 117.77,67.77 C119.16,67.81 119.53,67.75 119.83,67.36 C120.25,66.94 120.97,66.13 121.07,66.12 C121.62,66.04 122.79,66.11 123.14,65.70 C125.12,63.43 127.20,62.69 128.51,62.81 C128.51,62.81 128.93,61.98 128.93,61.98" fill="none" stroke="rgb(0, 0, 0)" stroke-width="5.00" stroke-opacity="1.00" stroke-linejoin="round"/>
<path d="M133.88,80.17 C135.70,80.18 136.35,80.14 136.36,79.75 C136.40,78.94 136.27,76.67 136.36,76.45 C136.78,76.03 137.26,75.45 137.19,73.97 C137.19,70.66 137.99,69.28 138.02,69.01 C138.06,68.71 138.84,68.48 139.26,68.60 C139.63,68.71 140.51,70.67 140.50,71.49 C140.50,71.52 141.97,73.04 142.56,73.55 C142.72,73.69 142.99,75.72 144.21,76.86 C144.62,77.21 144.60,77.82 144.63,78.10 C144.63,78.13 145.38,78.83 146.69,80.17 C146.69,80.17 145.45,79.75 145.45,79.75 C145.45,79.75 145.45,79.34 145.45,79.34" fill="none" stroke="rgb(0, 0, 0)" stroke-width="5.00" stroke-opacity="1.00" stroke-linejoin="round"/>
<path d="M138.02,76.86 C138.02,76.86 138.43,76.03 138.43,76.03 C138.43,76.03 140.08,76.03 140.08,76.03 C140.60,74.40 140.93,74.38 142.56,73.55 C144.18,72.75 144.37,72.61 144.63,72.73" fill="none" stroke="rgb(0, 0, 0)" stroke-width="5.00" stroke-opacity="1.00" stroke-linejoin="round"/>
<path d="M149.59,61.16 C149.95,61.07 153.09,64.34 154.13,65.29 C154.54,65.66 155.25,67.23 155.37,68.18 C155.38,68.24 156.70,69.50 157.02,70.66 C157.27,71.60 158.57,72.77 158.68,73.14 C158.83,73.67 158.82,75.60 159.50,76.45 C160.21,77.32 162.03,79.74 161.98,80.58 C161.74,80.22 161.02,80.18 160.74,80.17 C160.70,80.16 156.24,75.72 156.20,75.62 C156.10,75.36 156.19,74.74 155.79,74.38 C154.57,73.27 154.51,72.93 154.55,71.90" fill="none" stroke="rgb(0, 0, 0)" stroke-width="5.00" stroke-opacity="1.00" stroke-linejoin="round"/>
<path d="M152.07,64.46 C153.34,64.51 154.84,62.82 154.96,62.81 C155.13,62.80 162.79,62.77 162.81,63.22 C162.78,64.00 164.04,65.97 163.64,67.36 C163.57,67.54 162.74,68.41 162.40,68.60 C162.17,68.71 160.95,68.47 160.74,68.60 C160.41,68.80 159.33,69.29 159.09,69.42 C158.75,69.61 157.83,70.41 156.61,70.25 C155.49,70.11 152.96,71.93 152.89,71.90" fill="none" stroke="rgb(0, 0, 0)" stroke-width="5.00" stroke-opacity="1.00" stroke-linejoin="round"/>
<path d="M25.62,184.30 C25.62,184.30 26.03,184.30 26.03,184.30 C26.23,184.17 27.27,182.23 27.69,181.82 C28.90,180.75 30.59,175.34 30.58,173.97 C30.58,173.88 33.06,171.52 33.47,170.25 C34.86,170.21 35.25,170.27 35.54,170.66 C35.74,170.94 37.29,172.53 37.19,173.14 C37.19,173.14 40.91,176.86 40.91,176.86 C42.22,175.53 42.97,174.78 43.80,173.14 C43.80,171.40 50.27,163.59 50.41,163.22 C50.57,162.81 50.32,160.86 50.41,160.74 C51.24,159.67 51.95,156.86 52.07,156.61 C52.23,156.26 53.01,155.63 52.89,155.37" fill="none" stroke="rgb(0, 0, 0)" stroke-width="5.00" stroke-opacity="1.00" stroke-linejoin="round"/>
<path d="M56.20,179.34 C57.85,180.08 57.92,176.95 59.09,176.03 C59.50,175.72 60.21,172.56 60.33,172.31 C61.17,170.64 63.09,168.81 63.64,166.53 C63.66,166.42 63.80,166.28 64.05,166.12 C64.05,166.12 65.70,166.53 65.70,166.53 C65.93,167.13 66.77,167.83 66.94,168.18 C66.94,168.18 66.95,169.31 67.36,169.42 C69.45,169.94 70.25,167.32 70.66,166.94 C74.16,163.44 74.45,161.98 75.62,161.98 C75.76,161.96 76.86,159.92 77.27,159.50 C77.68,159.15 78.57,156.66 78.51,156.20" fill="none" stroke="rgb(0, 0, 0)" stroke-width="5.00" stroke-opacity="1.00" stroke-linejoin="round"/>
</g>
</svg>
