<?xml version="1.0" encoding="UTF-8" standalone="no"?>
<!DOCTYPE svg PUBLIC "-//W3C//DTD SVG 1.1//EN" "http://www.w3.org/Graphics/SVG/1.1/DTD/svg11.dtd">
<svg width="62.40" height="93.60" viewBox="0.00 0.00 260.00 390.00" xmlns="http://www.w3.org/2000/svg" xmlns:xlink="http://www.w3.org/1999/xlink">
<g stroke-linecap="round" id="Layer_4">
<path d="M136.36,147.11 C136.09,147.23 133.42,145.62 131.82,146.28 C131.46,146.43 130.84,147.17 129.34,147.11 C128.79,147.08 112.02,147.08 111.98,147.11 C111.70,147.38 110.97,148.01 109.50,147.93 C108.68,147.93 106.37,147.86 106.20,147.93 C105.84,148.09 104.98,148.92 103.72,148.76 C103.02,148.67 97.91,151.25 97.11,151.24 C97.08,151.24 95.55,152.72 95.04,153.31 C94.69,153.72 91.57,154.43 91.32,154.55 C87.83,156.31 84.48,159.32 83.88,160.33 C83.05,160.28 81.40,161.98 81.40,161.98 C81.14,162.04 80.23,162.05 80.17,162.40 C80.17,163.58 79.73,163.64 78.10,164.46 C75.73,164.46 75.12,165.91 74.79,166.94 C73.40,166.91 73.03,166.96 72.73,167.36 C71.81,168.53 70.61,168.60 70.25,169.01 C68.60,170.65 65.59,171.08 65.29,171.49 C65.09,171.76 63.11,174.49 62.81,174.79 C62.81,177.52 56.20,183.88 56.20,187.19 C55.37,188.02 54.55,190.48 54.55,190.50 C54.55,190.52 53.07,192.05 52.48,192.56 C52.07,192.92 52.08,194.59 52.07,194.63 C51.93,194.99 51.36,195.09 51.24,195.45 C51.24,196.28 49.43,202.44 49.59,205.37 C49.64,206.13 48.91,206.67 48.76,207.02 C48.69,207.20 48.78,216.47 48.76,216.94 C48.69,218.43 49.45,219.06 49.59,219.42 C49.75,219.81 49.50,221.78 49.59,221.90 C49.82,222.22 50.48,222.90 50.41,224.38 C50.33,226.74 51.12,227.32 51.24,227.69 C51.42,228.21 51.25,229.44 51.65,229.75 C52.84,230.68 53.15,232.51 53.72,233.47 C53.76,233.54 57.85,237.57 57.85,237.60 C57.85,238.16 59.58,240.46 60.33,240.91 C60.22,242.86 63.25,243.80 63.64,244.21 C65.70,246.28 66.53,246.28 67.36,247.11 C67.63,247.38 68.26,249.41 69.01,249.59 C69.28,249.65 69.87,249.59 70.25,250.00 C71.07,250.83 73.60,252.78 73.97,252.89 C74.49,253.05 75.10,252.72 75.62,252.89 C75.99,253.01 76.73,253.85 78.10,253.72 C79.47,253.59 80.23,254.37 80.58,254.55 C80.67,254.59 83.88,254.55 85.54,254.55 C86.33,254.52 86.83,255.23 87.19,255.37 C87.50,255.50 90.21,255.25 90.50,255.37 C90.86,255.52 91.42,256.25 92.98,256.20 C94.82,256.13 97.08,256.23 97.11,256.20 C98.07,255.31 99.74,255.38 105.76,255.39 C114.43,255.38 132.45,255.45 132.64,255.37 C133.00,255.21 133.10,254.67 133.47,254.55 C133.99,254.37 134.60,254.71 135.12,254.55 C136.33,254.16 140.08,251.24 140.50,250.83 C140.85,250.42 142.87,249.89 142.98,249.17 C143.12,248.20 144.02,247.30 145.04,247.11 C145.18,247.08 146.28,245.04 146.69,244.63 C147.09,244.28 147.06,243.66 147.11,243.39 C147.18,243.02 149.48,242.44 149.59,241.74 C149.73,240.77 150.63,239.86 151.65,239.67 C151.80,239.64 153.72,235.95 154.96,234.71 C155.36,234.35 156.09,232.75 156.20,231.82 C156.22,231.68 158.16,230.63 158.68,230.17 C159.46,229.45 160.33,226.88 160.33,226.86 C160.35,226.72 162.21,226.30 162.81,225.21 C162.81,224.38 163.01,223.18 164.05,222.31 C164.44,222.00 166.19,217.73 166.12,216.94 C165.99,215.58 166.77,214.81 166.94,214.46 C167.00,214.34 166.95,203.21 166.94,202.89 C166.89,201.40 167.60,200.18 167.77,199.59 C167.89,199.19 167.64,196.58 167.77,196.28 C167.92,195.92 168.75,195.07 168.60,193.80 C168.51,193.09 169.29,192.51 169.42,192.15 C169.58,191.74 169.33,189.79 169.42,189.67 C169.65,189.35 170.37,188.54 170.25,187.19 C170.12,185.82 170.91,185.07 171.07,184.71 C171.15,184.55 171.15,176.60 171.07,176.45 C170.91,176.09 170.37,175.99 170.25,175.62 C170.06,175.10 170.24,173.86 169.83,173.55 C168.84,172.77 165.43,166.07 165.29,165.70 C165.13,165.29 165.38,163.35 165.29,163.22 C163.66,160.82 161.72,158.68 159.92,158.68 C158.28,157.85 158.26,157.85 156.20,155.79 C155.81,155.37 154.67,155.35 152.89,153.31 C152.54,152.90 151.79,152.83 150.83,152.89 C150.09,152.96 149.53,152.23 149.17,152.07 C149.09,152.02 146.66,152.09 143.80,152.07" fill="none" stroke="rgb(0, 0, 0)" stroke-width="5.00" stroke-opacity="1.00" stroke-linejoin="round"/>
<path d="M72.73,221.49 C73.05,221.63 79.70,216.54 79.75,216.53 C80.70,216.40 82.26,215.70 82.64,215.29 C84.71,213.22 85.88,213.11 85.95,212.81 C85.98,212.70 85.98,212.42 85.95,211.98 C87.76,210.77 88.93,210.64 89.67,209.92 C89.89,209.70 90.32,207.44 92.98,207.44 C93.80,206.61 96.04,205.92 96.28,205.79 C96.62,205.60 97.20,204.92 98.76,204.96 C99.31,204.98 100.45,204.97 100.83,205.37 C101.07,205.67 101.70,206.28 101.65,207.02 C101.49,209.95 102.50,212.39 102.48,212.81 C102.39,215.17 102.50,221.12 102.07,221.49 C101.79,221.69 99.06,223.66 98.76,223.97 C97.93,223.97 95.83,225.50 95.45,225.62 C94.93,225.78 94.33,225.45 93.80,225.62 C93.43,225.74 92.69,226.57 91.32,226.45 C90.53,226.37 85.85,228.15 85.54,228.51 C83.22,231.17 80.81,232.02 80.17,232.64 C79.75,232.23 78.65,231.12 78.51,230.99 C78.34,230.83 77.36,228.61 76.45,228.10 C75.26,227.44 74.38,224.38 74.38,223.55 C74.26,223.18 73.55,222.31 73.55,221.90 C73.37,221.56 72.65,220.88 72.73,219.42 C72.74,219.13 72.74,218.71 72.73,218.18" fill="none" stroke="rgb(0, 0, 0)" stroke-width="5.00" stroke-opacity="1.00" stroke-linejoin="round"/>
<path d="M102.48,211.57 C102.35,211.24 104.76,208.95 104.96,208.68 C105.26,208.28 105.91,208.17 107.02,208.26 C107.76,208.33 108.30,207.55 108.68,207.44 C109.20,207.28 109.81,207.61 110.33,207.44 C110.61,207.16 110.88,206.89 111.16,206.61 C111.68,206.45 112.29,206.81 112.81,206.61 C113.17,206.47 113.26,205.87 113.64,205.79 C114.44,205.60 117.71,205.84 117.77,205.79 C118.05,205.52 118.88,204.84 119.83,204.96" fill="none" stroke="rgb(0, 0, 0)" stroke-width="5.00" stroke-opacity="1.00" stroke-linejoin="round"/>
<path d="M123.14,195.87 C123.02,196.12 123.77,196.77 123.97,197.11 C124.09,197.32 123.84,198.57 123.97,198.76 C124.17,199.09 124.84,199.69 124.79,201.24 C124.67,205.56 124.95,206.91 126.03,207.44 C126.28,207.55 126.92,207.45 127.27,207.85 C127.54,208.13 128.34,209.07 128.51,209.09 C128.75,209.11 134.13,209.05 135.12,209.09 C136.67,209.14 137.19,208.68 137.60,208.26 C137.70,208.22 140.91,208.26 142.56,208.26 C143.36,208.29 143.86,207.59 144.21,207.44 C144.32,207.39 147.52,207.44 149.17,207.44 C150.74,207.49 151.27,206.70 151.65,206.61 C152.45,206.40 154.24,206.60 154.55,206.20 C154.77,205.88 155.46,205.23 155.37,204.55 C155.21,203.28 156.03,202.42 156.20,202.07 C156.20,202.05 155.36,197.82 154.96,197.52 C154.48,197.16 152.57,195.06 151.65,195.04 C151.62,195.04 150.07,193.58 149.59,192.98 C149.22,192.54 133.12,192.58 132.64,192.56 C131.76,192.52 128.96,193.41 128.93,193.80 C128.76,194.95 128.29,195.13 125.21,195.04 C124.45,195.02 123.21,195.02 121.49,195.04" fill="none" stroke="rgb(0, 0, 0)" stroke-width="5.00" stroke-opacity="1.00" stroke-linejoin="round"/>
<path d="M56.20,194.21 C58.71,194.16 58.68,194.64 59.50,196.28 C59.62,196.53 61.28,200.70 61.16,202.07 C61.03,203.43 61.81,204.20 61.98,204.55 C62.03,204.64 61.96,206.99 61.98,209.50 C61.98,209.50 62.81,208.26 62.81,208.26" fill="none" stroke="rgb(0, 0, 0)" stroke-width="5.00" stroke-opacity="1.00" stroke-linejoin="round"/>
<path d="M66.94,175.21 C66.82,176.19 68.75,180.14 68.60,181.40 C68.51,182.11 69.28,182.70 69.42,183.06 C69.55,183.36 69.29,186.08 69.42,186.36 C69.57,186.72 70.30,187.31 70.25,188.84 C69.90,198.31 70.31,199.80 70.66,200.00 C70.66,200.00 71.07,200.00 71.07,200.00" fill="none" stroke="rgb(0, 0, 0)" stroke-width="5.00" stroke-opacity="1.00" stroke-linejoin="round"/>
<path d="M84.30,160.33 C84.30,163.64 84.23,171.35 84.30,171.49 C84.46,171.84 85.25,172.60 85.12,173.97 C85.00,175.33 85.81,176.08 85.95,176.45 C86.11,176.84 85.86,178.81 85.95,178.93 C86.17,179.25 86.83,179.89 86.78,181.40 C86.75,181.99 86.74,192.11 86.78,192.15 C87.05,192.43 87.67,193.15 87.60,194.63 C87.52,196.98 88.53,198.40 88.43,199.17" fill="none" stroke="rgb(0, 0, 0)" stroke-width="5.00" stroke-opacity="1.00" stroke-linejoin="round"/>
<path d="M115.70,239.67 C116.41,238.59 117.86,237.04 118.60,237.19 C118.61,237.19 120.25,235.54 121.49,234.30 C122.67,233.06 125.77,232.31 126.03,232.23 C126.86,231.82 128.97,230.69 129.34,230.58 C129.87,230.42 130.47,230.75 130.99,230.58 C132.16,230.20 134.61,228.81 135.95,228.93 C136.44,228.97 141.45,228.99 142.56,229.34 C142.79,229.96 143.65,230.63 143.80,230.99 C144.03,231.55 142.97,234.36 142.56,234.71 C142.20,235.02 139.56,236.89 139.26,237.19 C138.43,237.60 136.13,238.67 127.69,238.02 C126.94,237.96 126.40,238.71 126.03,238.84 C125.62,239.00 123.69,238.77 123.55,238.84 C123.55,238.84 118.85,243.69 117.77,242.98 C117.45,242.76 116.78,242.03 116.53,242.15" fill="none" stroke="rgb(0, 0, 0)" stroke-width="5.00" stroke-opacity="1.00" stroke-linejoin="round"/>
<path d="M152.89,241.32 C152.77,242.30 153.59,243.02 153.72,243.39 C153.90,243.91 153.73,245.15 154.13,245.45 C155.31,246.37 155.63,247.79 155.79,247.93 C156.61,248.76 157.85,249.97 157.85,250.00 C157.97,251.19 159.32,251.44 159.50,251.65 C159.81,252.02 161.10,253.18 161.16,253.31 C161.27,253.56 161.20,254.48 161.57,254.55 C162.63,254.77 164.88,257.02 164.88,257.02 C165.70,257.02 167.24,258.56 167.77,260.74 C167.98,261.64 169.31,262.85 169.42,263.22 C169.58,263.75 169.43,264.98 169.83,265.29 C170.25,265.70 171.11,266.79 171.07,268.18 C172.71,268.70 173.43,270.29 173.55,270.66 C173.73,271.18 173.56,272.42 173.97,272.73 C174.38,273.14 175.19,273.86 175.21,273.97 C175.21,274.79 175.22,275.73 175.62,276.03 C176.62,276.81 177.69,280.58 179.34,282.23 C179.46,282.48 181.12,286.65 180.99,288.02 C180.87,289.38 181.65,290.15 181.82,290.50 C181.87,290.59 181.82,293.80 181.82,295.45 C181.79,296.24 183.32,298.40 183.47,298.76 C183.60,299.07 183.34,301.78 183.47,302.07 C183.62,302.43 184.36,303.04 184.30,304.55 C184.27,305.09 184.27,321.87 184.30,321.90 C184.56,322.19 185.17,322.83 185.12,324.38 C185.00,328.70 185.12,329.34 186.36,330.58 C186.77,330.89 186.56,332.14 186.78,332.64 C186.92,333.01 187.50,333.09 187.60,333.47 C187.68,333.76 187.60,342.18 187.60,343.80" fill="none" stroke="rgb(0, 0, 0)" stroke-width="5.00" stroke-opacity="1.00" stroke-linejoin="round"/>
<path d="M124.79,273.55 C124.67,273.22 126.79,271.09 126.86,271.07 C126.96,271.05 127.23,271.05 127.69,271.07 C127.69,271.07 131.82,267.77 131.82,267.77 C131.82,267.77 133.47,265.29 133.47,265.29 C133.53,265.30 135.98,264.46 136.36,264.05 C138.43,261.98 139.26,261.98 140.08,261.16 C140.50,260.74 140.44,260.19 140.50,259.92 C140.57,259.55 142.60,259.10 142.98,258.26 C143.04,258.13 143.18,257.71 143.39,257.02 C144.86,257.04 145.10,257.02 145.45,256.61 C146.28,255.79 147.46,254.55 147.52,254.55 C150.13,254.57 152.80,251.75 154.13,251.24 C154.55,251.08 156.48,251.33 156.61,251.24 C157.73,250.48 158.57,250.37 159.50,249.17 C159.81,248.77 163.96,247.92 164.05,247.93 C164.76,248.02 167.36,246.69 169.01,246.28 C169.35,246.10 170.14,245.33 171.49,245.45 C172.85,245.58 173.55,245.04 173.97,244.63 C174.25,244.50 176.99,244.75 177.27,244.63 C177.63,244.48 178.25,243.74 179.75,243.80 C180.32,243.83 195.37,243.75 195.45,243.80 C198.02,245.54 198.76,246.34 199.59,246.28 C199.61,246.28 203.72,250.36 204.13,251.65 C204.29,252.18 203.96,252.78 204.13,253.31 C204.25,253.68 205.09,254.42 204.96,255.79 C204.83,257.15 205.79,259.92 206.61,260.74 C206.78,261.27 206.42,261.88 206.61,262.40 C206.75,262.76 207.35,262.84 207.44,263.22 C207.53,263.62 207.46,267.63 207.44,268.18 C207.36,269.64 208.09,270.31 208.26,270.66 C208.33,270.79 208.33,280.44 208.26,280.58 C208.10,280.93 207.41,282.89 205.79,283.88 C206.09,285.42 203.01,288.38 202.89,288.43 C202.64,288.54 201.82,288.44 201.65,288.84 C201.60,288.98 201.46,289.40 201.24,290.08 C199.93,289.96 199.10,290.72 198.76,290.91 C198.52,291.04 195.29,292.68 195.04,292.56" fill="none" stroke="rgb(0, 0, 0)" stroke-width="5.00" stroke-opacity="1.00" stroke-linejoin="round"/>
<path d="M192.56,290.91 C191.58,290.79 185.55,293.39 185.54,293.39 C185.54,293.39 183.29,295.65 182.23,295.87 C181.87,295.95 181.89,296.84 181.82,297.11 C181.57,298.04 180.27,299.21 180.17,299.59 C180.01,300.11 180.16,301.34 179.75,301.65 C179.46,301.91 178.53,302.70 178.51,302.89 C178.49,303.22 178.54,307.53 178.51,307.85 C178.45,308.59 179.22,309.13 179.34,309.50 C179.52,310.03 179.34,311.21 179.75,311.57 C180.17,311.98 180.63,312.43 181.40,312.40 C183.40,312.30 189.69,312.41 190.08,311.98 C191.88,309.92 194.65,309.09 195.04,308.68 C196.14,307.50 198.33,305.42 198.35,305.37 C198.43,305.15 198.23,303.94 198.35,303.72 C198.43,303.56 199.41,302.56 199.59,302.48 C200.88,301.79 199.94,295.05 199.59,293.80 C198.39,293.21 198.14,291.94 197.93,291.74 C196.99,290.89 195.55,290.93 192.56,290.91" fill="none" stroke="rgb(0, 0, 0)" stroke-width="5.00" stroke-opacity="1.00" stroke-linejoin="round"/>
<path d="M125.62,277.69 C125.77,278.01 123.26,281.03 123.14,281.40 C122.98,281.93 123.34,282.54 123.14,283.06 C123.01,283.42 122.41,283.51 122.31,283.88 C122.22,284.27 122.34,294.99 122.31,295.45 C122.24,296.93 122.96,297.59 123.14,297.93 C123.27,298.18 124.79,302.98 126.03,304.13 C128.10,306.20 128.10,307.02 128.93,307.85 C129.34,308.26 130.94,309.04 131.82,309.09 C132.06,309.10 132.32,309.71 132.64,310.74 C133.95,310.62 134.78,311.38 135.12,311.57 C135.54,311.57 136.41,312.28 136.78,312.40 C137.30,312.56 137.91,312.22 138.43,312.40 C138.80,312.52 139.54,313.35 140.91,313.22 C142.28,313.10 143.04,313.88 143.39,314.05 C143.49,314.10 152.44,314.02 152.48,314.05 C152.76,314.32 153.61,315.00 154.96,314.88 C156.32,314.75 157.09,315.53 157.44,315.70 C157.56,315.76 167.29,315.70 167.36,315.70 C168.10,315.76 168.64,315.00 169.01,314.88 C169.53,314.69 171.07,314.84 171.90,314.46 C171.90,314.46 171.90,312.40 171.90,312.40" fill="none" stroke="rgb(0, 0, 0)" stroke-width="5.00" stroke-opacity="1.00" stroke-linejoin="round"/>
<path d="M172.73,299.17 C169.72,299.11 167.73,299.83 167.36,300.00 C167.00,300.16 166.49,300.84 164.88,300.83 C164.46,300.83 159.61,305.68 159.50,306.20 C159.40,306.71 159.57,308.59 159.50,308.68 C159.28,309.00 158.65,309.56 158.68,311.16 C158.70,312.26 158.70,314.67 159.09,314.88 C159.30,314.97 162.03,317.24 162.40,317.36 C162.92,317.51 163.53,317.16 164.05,317.36 C164.42,317.49 164.50,318.08 164.88,318.18 C165.19,318.26 174.03,318.18 176.45,318.18 C176.80,317.34 176.96,316.30 176.86,315.29 C176.79,314.56 177.54,314.00 177.69,313.64 C177.76,313.46 177.63,311.00 177.69,310.33 C177.88,306.79 173.19,306.41 173.55,304.55 C173.69,303.79 171.07,301.24 171.07,301.24 C170.96,300.99 171.06,300.35 170.66,300.00 C170.30,299.69 169.13,298.40 169.01,298.35 C168.76,298.24 168.13,298.34 167.77,297.93 C166.53,296.69 164.72,295.75 164.46,295.87" fill="none" stroke="rgb(0, 0, 0)" stroke-width="5.00" stroke-opacity="1.00" stroke-linejoin="round"/>
<path d="M45.45,318.18 C46.40,316.73 47.81,314.83 47.93,314.46 C48.11,313.94 47.94,312.70 48.35,312.40 C48.83,312.04 50.75,309.94 51.65,309.92 C52.57,309.93 55.32,311.93 55.37,311.98 C58.26,314.88 59.09,314.85 59.50,315.29 C61.57,317.36 64.02,319.01 64.05,319.01 C64.36,319.04 75.51,319.02 75.62,319.01 C75.66,319.00 77.15,317.51 77.69,316.94 C77.83,316.79 79.65,315.75 80.17,315.29 C80.95,314.58 81.82,312.81 81.82,311.98 C82.64,310.35 82.65,310.01 84.71,309.92 C85.50,309.89 87.19,310.74 88.02,311.57 C88.84,311.57 90.50,312.40 91.32,313.22 C91.57,313.34 93.80,314.05 94.63,314.05 C95.00,314.17 95.72,315.00 96.69,314.88" fill="none" stroke="rgb(0, 0, 0)" stroke-width="5.00" stroke-opacity="1.00" stroke-linejoin="round"/>
<path d="M63.64,348.76 C62.89,347.11 67.36,347.11 74.38,340.08 C75.67,338.73 80.50,338.79 80.58,338.84 C81.71,339.61 82.64,339.72 82.64,340.91 C82.67,341.05 83.94,341.33 85.12,342.56 C85.48,342.94 87.07,344.09 87.60,345.04 C87.89,345.48 97.68,345.48 97.93,345.45 C98.10,345.44 98.90,344.49 99.17,344.21 C99.53,343.81 101.56,343.27 101.65,342.56 C101.78,341.61 102.49,340.03 102.89,339.67 C104.12,338.53 104.35,336.49 104.55,336.36 C104.64,336.30 104.77,336.17 104.96,335.95 C104.96,335.95 104.96,335.54 104.96,335.54" fill="none" stroke="rgb(0, 0, 0)" stroke-width="5.00" stroke-opacity="1.00" stroke-linejoin="round"/>
<path d="M44.63,109.92 C42.75,109.20 41.88,113.20 41.74,113.22 C40.55,113.22 39.79,114.92 39.67,115.29 C39.51,115.82 39.87,116.43 39.67,116.94 C39.53,117.31 38.93,117.39 38.84,117.77 C38.75,118.16 38.88,122.12 38.84,122.73 C38.79,123.69 39.79,125.41 39.67,126.03 C39.67,126.03 45.04,130.58 45.04,130.58 C46.42,130.30 48.35,132.23 51.65,133.88 C51.79,133.94 63.05,133.88 63.22,133.88 C64.01,133.92 65.76,133.05 66.12,132.64 C67.25,131.42 69.41,131.13 69.83,131.40 C70.95,132.16 71.80,132.28 72.73,133.47 C73.04,133.88 77.18,134.72 77.27,134.71 C77.98,134.62 78.57,135.38 78.93,135.54 C79.03,135.59 82.23,135.54 83.88,135.54 C85.44,135.49 86.01,136.21 86.36,136.36 C86.51,136.43 106.92,136.43 107.02,136.36 C108.29,135.48 109.82,135.55 115.42,135.54 C123.67,135.53 141.03,135.49 141.32,135.12 C141.53,134.85 141.30,124.72 141.74,124.79 C141.75,124.80 145.04,123.14 145.04,123.14 C145.86,122.51 147.19,120.69 147.52,120.66 C147.85,120.63 152.16,120.69 152.48,120.66 C153.22,120.60 153.77,121.35 154.13,121.49 C154.30,121.55 156.30,121.46 157.44,121.49 C157.92,120.43 157.90,113.76 157.85,113.64 C157.70,113.28 155.85,110.87 154.96,109.92 C154.16,109.08 152.43,109.15 152.07,109.50 C151.07,110.55 151.30,111.35 151.65,112.40 C153.70,112.57 154.72,112.16 154.55,111.16 C154.50,110.88 153.02,110.72 151.24,108.68 C150.88,108.26 146.78,107.43 146.69,107.44 C146.06,107.52 144.82,106.75 144.21,106.61 C143.68,106.49 140.17,105.78 140.08,105.79 C137.73,105.87 136.73,104.92 135.54,104.96 C134.90,104.98 124.58,104.88 124.38,104.96 C124.02,105.11 123.39,105.86 121.90,105.79 C121.43,105.76 112.19,105.86 111.98,105.79 C111.40,105.59 109.90,104.88 107.02,104.96 C106.35,104.98 97.72,104.96 95.45,104.96 C95.45,104.96 95.04,106.20 95.04,106.20 C96.45,106.40 95.18,104.20 94.63,104.13 C94.61,104.13 91.69,102.60 91.32,102.48 C90.79,102.32 90.18,102.68 89.67,102.48 C89.30,102.34 89.22,101.74 88.84,101.65 C88.45,101.56 84.43,101.63 83.88,101.65 C82.42,101.73 81.75,101.00 81.40,100.83 C81.32,100.78 78.96,100.85 76.45,100.83 C76.05,102.10 74.38,103.72 74.38,103.72 C74.34,103.99 73.55,106.48 73.14,106.61 C72.47,106.83 69.07,106.54 69.01,106.61 C68.72,106.87 68.08,107.49 66.53,107.44 C64.88,107.44 61.67,107.39 61.57,107.44 C61.22,107.62 61.11,108.14 60.74,108.26 C60.23,108.45 58.99,108.27 58.68,108.68 C57.76,109.85 53.86,111.83 53.72,111.98 C53.17,112.54 51.74,114.04 51.65,114.05 C51.30,114.07 41.74,114.05 38.43,114.05 C38.43,114.05 38.02,117.36 38.02,117.36" fill="none" stroke="rgb(0, 0, 0)" stroke-width="5.00" stroke-opacity="1.00" stroke-linejoin="round"/>
<path d="M54.55,114.05 C54.55,114.05 54.55,116.12 54.55,116.12 C53.93,116.32 52.91,116.66 52.89,116.94 C52.85,117.49 52.88,118.70 52.48,119.01 C51.31,119.92 50.97,121.46 50.83,121.49 C49.77,121.69 48.45,123.13 48.35,123.14 C47.52,123.14 46.61,123.15 46.28,123.55 C46.03,123.86 45.34,124.55 45.45,124.79" fill="none" stroke="rgb(0, 0, 0)" stroke-width="5.00" stroke-opacity="1.00" stroke-linejoin="round"/>
<path d="M83.47,110.74 C83.52,112.02 81.85,113.45 81.82,113.64 C81.79,113.81 81.79,114.36 81.82,115.29 C81.82,115.29 79.34,116.94 79.34,116.94 C79.34,116.94 76.03,121.90 76.03,121.90 C75.19,122.48 69.42,127.69 69.42,127.69 C68.62,128.83 67.08,129.18 66.94,129.34 C66.73,129.58 62.81,133.47 61.98,134.30 C61.98,134.30 62.81,133.88 62.81,133.88" fill="none" stroke="rgb(0, 0, 0)" stroke-width="5.00" stroke-opacity="1.00" stroke-linejoin="round"/>
<path d="M107.44,110.74 C106.60,112.02 102.49,116.88 102.48,116.94 C102.48,118.94 99.24,119.88 99.17,120.25 C99.17,121.41 97.71,121.69 97.52,121.90 C96.54,123.00 95.66,123.48 95.04,124.38 C94.24,125.52 92.59,125.89 92.56,126.03 C92.34,127.10 90.08,129.34 90.08,129.34 C90.09,129.49 89.14,131.21 89.26,131.82 C89.26,131.82 90.08,131.40 90.08,131.40" fill="none" stroke="rgb(0, 0, 0)" stroke-width="5.00" stroke-opacity="1.00" stroke-linejoin="round"/>
<path d="M135.54,111.57 C134.41,111.14 132.65,114.39 130.17,116.53 C129.77,116.88 129.80,117.50 129.75,117.77 C129.73,117.91 127.79,118.96 127.27,119.42 C126.50,120.13 126.48,120.80 126.45,121.07 C126.40,121.44 124.07,122.02 123.97,122.73 C123.82,123.70 122.92,124.60 121.90,124.79 C121.76,124.82 120.71,126.75 120.25,127.27 C119.63,127.96 118.18,128.15 118.18,129.34 C118.18,129.36 116.77,129.80 116.53,130.17 C116.53,130.17 116.53,130.58 116.53,130.58" fill="none" stroke="rgb(0, 0, 0)" stroke-width="5.00" stroke-opacity="1.00" stroke-linejoin="round"/>
<path d="M63.64,141.32 C63.61,142.12 63.71,144.02 63.64,144.21 C63.49,144.58 62.81,146.13 60.74,147.93 C60.33,148.29 59.52,151.38 59.50,151.65 C59.49,152.00 58.86,152.10 57.85,152.07" fill="none" stroke="rgb(0, 0, 0)" stroke-width="5.00" stroke-opacity="1.00" stroke-linejoin="round"/>
<path d="M52.89,161.16 C52.89,161.16 51.24,164.05 51.24,164.05 C51.24,164.05 51.24,164.46 51.24,164.46" fill="none" stroke="rgb(0, 0, 0)" stroke-width="5.00" stroke-opacity="1.00" stroke-linejoin="round"/>
<path d="M86.78,143.80 C86.78,143.80 86.36,143.80 86.36,143.80 C86.17,143.93 85.88,145.37 84.71,146.28 C84.31,146.58 84.26,146.96 84.30,148.35 C82.66,148.87 82.60,149.71 81.82,150.83 C81.46,151.33 79.05,154.49 78.93,154.55 C78.67,154.66 77.76,154.56 77.69,154.96 C77.66,155.11 77.66,155.52 77.69,156.20" fill="none" stroke="rgb(0, 0, 0)" stroke-width="5.00" stroke-opacity="1.00" stroke-linejoin="round"/>
<path d="M71.90,163.64 C71.90,163.64 71.90,164.46 71.90,164.46" fill="none" stroke="rgb(0, 0, 0)" stroke-width="5.00" stroke-opacity="1.00" stroke-linejoin="round"/>
<path d="M165.29,128.93 C165.04,128.81 162.86,129.80 162.81,130.17 C162.81,130.19 161.28,133.10 161.16,133.47 C160.98,133.99 161.15,135.23 160.74,135.54 C159.55,136.47 158.64,139.42 158.26,139.67 C158.26,139.67 157.85,139.67 157.85,139.67" fill="none" stroke="rgb(0, 0, 0)" stroke-width="5.00" stroke-opacity="1.00" stroke-linejoin="round"/>
<path d="M149.59,149.59 C149.59,149.59 148.76,150.00 148.76,150.00 C148.76,150.00 148.76,151.24 148.76,151.24" fill="none" stroke="rgb(0, 0, 0)" stroke-width="5.00" stroke-opacity="1.00" stroke-linejoin="round"/>
</g>
</svg>
