<?xml version="1.0" encoding="UTF-8" standalone="no"?>
<!DOCTYPE svg PUBLIC "-//W3C//DTD SVG 1.1//EN" "http://www.w3.org/Graphics/SVG/1.1/DTD/svg11.dtd">
<svg width="62.40" height="93.60" viewBox="0.00 0.00 260.00 390.00" xmlns="http://www.w3.org/2000/svg" xmlns:xlink="http://www.w3.org/1999/xlink">
<g stroke-linecap="round" id="Layer_7">
<path d="M159.50,98.35 C155.49,98.32 151.79,98.49 150.00,96.69 C149.48,96.52 148.87,96.85 148.35,96.69 C147.98,96.58 147.11,95.87 146.69,95.87 C146.35,95.69 145.73,94.98 144.21,95.04 C143.68,95.06 132.93,95.06 132.64,95.04 C131.89,94.99 131.36,95.76 130.99,95.87 C130.46,96.03 129.86,95.70 129.34,95.87 C129.06,96.14 128.79,96.42 128.51,96.69 C127.99,96.87 127.39,96.53 126.86,96.69 C126.49,96.81 125.47,97.46 125.21,97.52 C124.39,97.73 123.14,98.76 122.73,99.17 C121.89,99.79 117.73,101.23 115.29,102.89 C115.14,103.00 109.00,106.39 108.68,106.61 C107.81,107.24 106.44,107.31 106.20,107.44 C105.85,107.61 99.13,111.46 98.76,111.57 C98.23,111.73 97.00,111.58 96.69,111.98 C96.28,112.40 95.56,113.21 95.45,113.22 C94.90,113.26 94.32,113.05 93.80,113.22 C89.05,114.83 87.60,119.46 87.19,119.83 C86.95,120.05 81.82,125.17 81.82,125.21 C81.82,126.06 79.34,128.51 79.34,128.51 C79.35,129.30 78.65,130.39 78.51,130.99 C78.39,131.53 77.92,134.38 76.45,135.54 C76.05,135.84 76.03,136.78 76.03,137.60 C76.02,137.71 75.21,138.43 74.79,138.84 C74.39,139.15 73.55,143.31 73.55,143.39 C73.68,144.75 73.14,145.45 72.73,145.87 C72.66,146.04 72.73,148.35 72.73,149.17 C72.80,150.66 72.06,151.30 71.90,151.65 C71.83,151.80 71.83,172.20 71.90,172.31 C72.12,172.64 72.60,173.73 72.73,173.97 C72.91,174.31 73.71,175.21 73.55,176.45 C73.46,177.16 74.27,177.73 74.38,178.10 C74.54,178.63 74.21,179.23 74.38,179.75 C74.66,180.03 74.93,180.30 75.21,180.58 C75.38,181.10 75.05,181.70 75.21,182.23 C76.03,183.47 77.27,186.36 77.69,188.02 C77.69,188.06 82.14,192.53 82.23,192.56 C83.06,192.98 85.95,193.80 86.36,194.21 C86.89,194.38 87.50,194.02 88.02,194.21 C88.38,194.35 88.46,194.95 88.84,195.04 C89.64,195.22 92.92,194.98 92.98,195.04 C93.97,196.01 95.75,195.84 99.59,196.69 C100.19,196.83 101.83,197.38 102.07,197.52 C102.40,197.72 103.07,198.42 104.55,198.35 C106.90,198.26 108.32,199.28 109.50,199.17 C110.87,199.05 111.57,199.59 111.98,200.00 C112.15,200.07 114.46,200.00 115.29,200.00 C116.76,199.93 117.42,200.64 117.77,200.83 C118.18,200.83 119.07,201.49 119.42,201.65 C119.58,201.72 145.44,201.63 145.87,201.65 C147.37,201.72 147.98,200.97 148.35,200.83 C148.76,200.66 150.63,200.91 150.83,200.83 C151.39,200.59 152.89,199.88 154.13,200.00 C154.21,200.01 158.37,199.17 158.68,198.76 C159.60,197.57 162.40,196.69 164.46,194.63 C164.85,194.21 167.13,193.38 168.18,193.39 C168.27,193.39 171.40,190.09 173.14,190.08 C173.18,190.08 178.40,184.82 178.51,184.71 C179.14,184.12 182.64,178.93 183.06,178.51 C183.46,178.16 185.01,175.16 185.12,174.79 C185.28,174.27 184.93,173.66 185.12,173.14 C185.26,172.78 185.86,172.69 185.95,172.31 C186.13,171.52 185.89,168.24 185.95,168.18 C186.84,167.22 186.77,165.55 186.76,159.47 C186.76,150.79 186.80,136.27 186.78,135.95 C186.76,135.77 185.83,134.96 185.54,134.71 C185.14,134.40 185.03,133.76 185.12,132.64 C185.19,131.91 184.41,131.36 184.30,130.99 C184.30,130.17 183.59,127.93 183.47,127.69 C182.07,126.28 181.56,122.73 178.93,122.31 C178.93,122.31 177.40,120.75 176.45,120.66 C176.45,120.66 174.20,118.40 173.14,118.18 C172.73,118.11 172.65,116.53 171.49,116.53 C171.14,116.47 171.03,115.91 171.07,115.29 C171.08,115.27 169.42,113.64 168.18,112.40 C167.77,112.00 167.78,111.58 167.77,111.16 C166.42,110.20 164.06,109.13 163.22,108.26 C162.44,107.45 161.10,106.77 160.74,106.61 C160.62,106.56 158.44,106.63 156.61,106.61 C156.61,106.61 156.20,105.79 156.20,105.79" fill="none" stroke="rgb(0, 0, 0)" stroke-width="5.00" stroke-opacity="1.00" stroke-linejoin="round"/>
<path d="M85.12,139.67 C86.04,140.11 89.65,136.38 91.32,135.54 C91.57,135.42 94.73,134.70 95.04,134.30 C95.45,133.88 96.18,133.07 96.28,133.06 C96.83,133.02 100.34,132.22 100.41,132.23 C100.49,132.24 104.60,131.40 104.96,130.99 C106.76,128.93 108.90,128.21 109.50,128.10 C110.01,128.01 118.07,127.90 118.18,129.34 C118.22,129.89 117.97,130.48 118.18,130.99 C118.32,131.35 118.91,131.44 119.01,131.82 C119.10,132.20 119.06,140.83 119.01,140.91 C117.53,142.89 117.35,145.15 116.94,145.45 C116.67,145.65 115.38,147.05 115.29,147.11 C115.15,147.19 113.15,146.95 112.81,147.11 C112.45,147.27 112.36,147.84 111.98,147.93 C111.60,148.02 102.96,147.99 102.89,147.93 C102.58,147.70 101.96,147.06 100.41,147.11 C98.76,147.11 96.31,147.14 96.28,147.11 C96.00,146.84 95.28,146.21 93.80,146.28 C93.25,146.30 91.40,146.32 91.32,146.28 C91.23,146.23 89.58,144.55 89.26,143.39 C89.03,142.52 87.56,139.92 87.19,139.67 C87.19,139.67 86.78,139.67 86.78,139.67" fill="none" stroke="rgb(0, 0, 0)" stroke-width="5.00" stroke-opacity="1.00" stroke-linejoin="round"/>
<path d="M121.49,132.23 C121.49,132.23 142.98,132.23 142.98,132.23" fill="none" stroke="rgb(0, 0, 0)" stroke-width="5.00" stroke-opacity="1.00" stroke-linejoin="round"/>
<path d="M142.98,132.23 C142.98,145.04 142.94,145.76 143.80,146.69 C144.66,147.55 147.01,147.74 147.52,147.93 C147.88,148.07 147.97,148.67 148.35,148.76 C149.15,148.94 152.42,148.70 152.48,148.76 C152.76,149.03 153.47,149.66 154.96,149.59 C155.73,149.55 159.34,149.55 159.92,149.59 C161.62,149.70 163.95,147.12 164.05,147.11 C164.60,147.07 166.94,146.28 167.36,146.28 C167.69,146.09 167.81,145.57 168.18,145.45 C169.01,145.45 171.80,144.59 172.73,143.39 C172.76,143.34 172.75,135.85 172.31,135.54 C171.82,135.23 168.99,133.20 168.18,133.06 C167.64,132.96 167.03,133.28 166.53,133.06 C166.17,132.91 166.08,132.33 165.70,132.23 C165.37,132.15 150.08,132.18 150.00,132.23 C149.68,132.46 148.59,132.93 148.35,133.06 C148.00,133.24 147.36,133.95 145.87,133.88 C145.52,133.87 144.97,133.87 144.21,133.88 C144.21,133.88 143.80,134.71 143.80,134.71" fill="none" stroke="rgb(0, 0, 0)" stroke-width="5.00" stroke-opacity="1.00" stroke-linejoin="round"/>
<path d="M110.74,167.77 C111.00,167.65 112.84,168.60 113.22,169.01 C116.72,172.51 118.06,172.78 118.18,173.97 C118.19,174.01 122.68,178.46 122.73,178.51 C123.42,179.27 123.77,179.45 124.38,179.34 C125.02,179.21 125.68,180.00 126.03,180.17 C126.14,180.21 129.34,180.10 130.99,180.17 C132.55,180.21 133.09,179.43 133.47,179.34 C134.27,179.14 136.81,179.18 138.43,178.51 C138.43,178.51 140.70,176.18 141.74,176.03 C142.08,175.99 142.15,175.21 142.15,174.79 C142.17,174.65 144.11,173.60 144.63,173.14 C145.80,172.08 146.69,169.01 147.11,167.36 C147.55,166.05 148.76,164.90 148.76,164.88 C148.79,164.54 148.75,160.79 148.76,159.92 C148.76,159.92 147.93,159.50 147.93,159.50" fill="none" stroke="rgb(0, 0, 0)" stroke-width="5.00" stroke-opacity="1.00" stroke-linejoin="round"/>
<path d="M133.06,207.44 C133.06,207.44 132.64,207.44 132.64,207.44 C132.27,207.69 131.37,210.27 131.40,211.16 C132.11,228.97 130.52,233.51 130.58,235.95 C130.60,237.05 130.61,240.05 130.58,240.08 C129.69,241.07 129.77,243.13 129.77,250.74 C129.78,253.56 129.69,255.62 129.75,255.79 C130.66,258.23 130.57,261.10 130.55,267.02 C130.56,270.88 130.65,278.77 130.58,278.93 C130.42,279.28 129.70,279.86 129.75,281.40 C129.77,281.82 129.74,287.61 129.75,288.02 C129.80,289.56 129.08,290.14 128.93,290.50 C128.86,290.65 128.93,331.82 128.93,345.04 C128.93,345.04 127.43,342.09 127.27,341.74 C127.17,341.49 127.42,338.19 127.27,337.60 C126.86,336.78 126.33,335.47 126.45,333.88" fill="none" stroke="rgb(0, 0, 0)" stroke-width="5.00" stroke-opacity="1.00" stroke-linejoin="round"/>
<path d="M33.06,92.56 C33.03,94.73 33.11,97.01 33.06,97.11 C32.89,97.46 32.07,98.32 32.23,99.59 C32.32,100.30 31.54,100.87 31.40,101.24 C31.25,101.65 31.49,103.60 31.40,103.72 C31.17,104.03 30.69,104.17 30.58,104.55 C30.42,105.07 30.75,105.67 30.58,106.20 C30.46,106.57 29.59,107.41 29.75,108.68 C29.84,109.39 29.08,109.97 28.93,110.33 C28.86,110.49 28.86,130.89 28.93,130.99 C29.16,131.31 29.91,132.23 29.75,133.47 C29.66,134.18 30.44,134.76 30.58,135.12 C30.70,135.43 30.45,138.14 30.58,138.43 C30.74,138.79 31.28,138.89 31.40,139.26 C31.58,139.78 31.27,140.38 31.40,140.91 C31.50,141.29 32.76,142.40 33.06,143.39 C33.16,143.71 32.92,144.81 33.06,145.04 C33.88,146.39 34.71,148.35 34.71,148.35 C35.07,149.63 37.18,151.54 37.19,151.65 C37.36,153.85 38.65,155.18 39.67,155.79 C39.63,157.18 39.69,157.55 40.08,157.85 C41.08,158.63 44.09,164.76 44.21,164.88 C44.35,165.00 44.77,165.28 45.45,165.70 C45.21,167.29 50.06,172.54 51.65,173.97 C53.31,176.03 58.26,183.06 60.74,184.71 C61.89,185.47 62.85,186.38 62.81,187.19 C63.88,187.82 66.47,191.10 66.94,191.32 C67.33,191.51 68.48,191.95 69.01,192.98 C69.06,193.08 72.55,196.53 73.97,197.52 C74.35,197.79 76.43,200.01 77.27,200.00 C77.27,200.00 79.34,202.07 79.34,202.07 C79.27,203.25 80.25,203.37 81.40,204.13 C82.92,205.12 84.63,207.01 85.54,207.44 C86.10,207.44 88.40,209.17 88.84,209.92 C89.68,209.87 91.66,211.86 91.74,211.98 C92.41,213.09 94.53,213.92 96.28,215.70 C97.90,217.36 99.59,217.36 101.24,219.01 C101.94,219.79 103.72,220.66 104.55,220.66 C105.37,221.49 107.83,222.31 107.85,222.31 C107.91,222.32 109.45,223.97 110.33,223.97 C110.39,223.98 111.33,224.90 111.57,225.21 C111.87,225.60 112.25,225.66 113.64,225.62 C113.84,226.24 114.19,227.26 114.46,227.27 C116.15,227.32 119.44,228.94 120.66,230.17 C121.38,230.98 125.76,232.20 126.03,232.23 C126.03,232.23 127.99,234.28 129.34,234.71 C130.17,234.71 132.37,235.50 132.64,235.54 C132.70,235.55 135.39,238.48 136.36,238.02" fill="none" stroke="rgb(0, 0, 0)" stroke-width="5.00" stroke-opacity="1.00" stroke-linejoin="round"/>
<path d="M136.36,239.67 C136.64,239.79 137.24,238.98 137.60,238.84 C138.03,238.68 139.97,238.93 140.08,238.84 C141.33,237.96 142.68,238.02 148.05,238.03 C164.53,238.03 184.46,237.94 184.71,238.02 C186.65,238.98 191.60,238.88 192.15,238.84 C192.91,238.79 193.45,239.51 193.80,239.67 C193.94,239.73 207.78,239.62 207.85,239.67 C208.16,239.91 208.98,240.62 210.33,240.50 C211.70,240.37 215.68,242.31 216.94,242.15 C217.90,242.03 222.73,244.63 224.38,246.28 C224.98,246.94 229.34,249.59 231.40,251.65 C231.79,252.06 232.23,252.07 232.64,252.07 C232.68,252.07 233.88,253.31 234.71,254.13 C235.09,254.55 236.91,254.55 237.19,255.79 C237.25,256.05 237.25,256.96 237.60,257.02 C239.78,257.44 240.49,259.93 240.91,260.33 C243.80,263.22 243.74,264.05 244.21,264.46 C244.63,264.88 245.72,266.92 245.87,266.94 C247.05,266.94 247.18,267.92 247.93,269.01 C249.68,271.57 250.45,274.10 250.83,274.38 C250.83,274.38 251.24,274.38 251.24,274.38" fill="none" stroke="rgb(0, 0, 0)" stroke-width="5.00" stroke-opacity="1.00" stroke-linejoin="round"/>
<path d="M44.63,47.93 C42.64,47.68 40.18,50.41 40.08,50.41 C39.53,50.45 37.03,51.12 36.78,51.24 C35.14,52.07 34.01,53.24 33.06,54.13 C32.28,54.87 32.23,56.05 30.17,57.85 C29.75,58.21 29.77,59.88 29.75,59.92 C29.63,60.29 28.22,62.03 28.10,62.40 C27.94,62.92 28.27,63.53 28.10,64.05 C27.98,64.42 27.11,65.27 27.27,66.53 C27.36,67.24 26.61,67.83 26.45,68.18 C26.40,68.28 26.51,71.68 26.45,73.14 C26.43,73.53 29.75,80.62 30.17,80.99 C31.69,82.37 34.19,85.08 35.12,85.12 C35.15,85.12 36.36,86.36 37.19,87.19 C37.57,87.60 39.99,88.47 40.91,88.43 C43.27,88.34 44.64,89.31 45.87,89.26 C46.42,89.23 63.19,89.29 63.22,89.26 C63.90,88.56 65.80,88.42 66.94,87.19 C67.31,86.78 72.12,85.03 73.14,85.12 C73.35,84.50 73.69,83.49 73.97,83.47 C74.52,83.42 75.70,83.47 76.03,83.06 C76.14,82.93 79.83,79.24 80.17,78.93 C81.10,78.03 80.84,76.50 81.82,75.62 C81.96,75.48 82.61,75.08 82.64,74.79 C82.68,74.50 82.64,63.33 82.64,63.22 C82.70,62.49 81.82,60.74 80.99,59.92 C80.99,59.81 80.16,57.38 79.75,57.02 C79.58,56.87 71.83,49.13 71.49,48.76 C70.83,48.07 69.43,47.89 68.60,46.69 C67.80,45.55 63.66,43.53 63.64,43.39 C63.64,42.20 63.20,42.15 61.57,41.32 C61.32,41.20 60.28,40.64 59.92,40.50 C59.72,40.42 57.82,40.52 57.02,40.50" fill="none" stroke="rgb(0, 0, 0)" stroke-width="5.00" stroke-opacity="1.00" stroke-linejoin="round"/>
<path d="M250.41,276.86 C250.41,276.86 250.00,276.03 250.00,276.03 C247.46,276.06 245.18,275.99 245.04,276.03 C244.46,276.23 242.87,277.01 241.74,276.86 C241.04,276.76 240.45,277.55 240.08,277.69 C239.67,277.84 237.72,277.60 237.60,277.69 C236.29,278.66 234.33,278.41 233.47,279.34 C232.71,280.16 227.70,281.82 227.69,281.82 C227.31,281.82 227.49,283.38 227.27,283.88 C227.13,284.25 226.54,284.33 226.45,284.71 C226.36,285.09 226.49,289.21 226.45,289.67 C226.39,290.41 227.14,290.96 227.27,291.32 C227.43,291.74 227.19,293.66 227.27,293.80 C227.33,293.90 228.73,295.18 228.93,295.45 C229.22,295.85 230.17,295.87 230.99,295.87 C231.10,295.88 231.82,296.69 232.23,297.11 C232.54,297.50 233.19,297.61 234.30,297.52 C235.04,297.45 235.60,298.19 235.95,298.35 C236.05,298.39 239.26,298.35 240.91,298.35 C241.70,298.32 242.20,299.03 242.56,299.17 C242.75,299.25 245.04,299.12 245.87,299.17 C246.79,299.22 249.19,298.35 249.59,297.93 C250.69,296.76 252.88,294.67 252.89,294.63 C252.98,294.41 252.76,293.16 252.89,292.98 C253.10,292.64 253.78,292.02 253.72,290.50 C253.70,289.87 253.78,281.49 253.72,281.40 C253.49,281.09 252.77,280.30 252.89,279.34" fill="none" stroke="rgb(0, 0, 0)" stroke-width="5.00" stroke-opacity="1.00" stroke-linejoin="round"/>
</g>
</svg>
