<?xml version="1.0" encoding="UTF-8" standalone="no"?>
<!DOCTYPE svg PUBLIC "-//W3C//DTD SVG 1.1//EN" "http://www.w3.org/Graphics/SVG/1.1/DTD/svg11.dtd">
<svg width="62.40" height="93.60" viewBox="0.00 0.00 260.00 390.00" xmlns="http://www.w3.org/2000/svg" xmlns:xlink="http://www.w3.org/1999/xlink">
<g stroke-linecap="round" id="Layer_3">
<path d="M144.63,167.77 C143.83,167.75 141.89,167.84 141.74,167.77 C141.38,167.61 140.59,166.86 137.60,166.94 C136.77,166.96 126.89,166.91 126.86,166.94 C126.58,167.22 125.62,167.93 124.38,167.77 C123.67,167.68 123.09,168.46 122.73,168.60 C122.31,168.75 120.36,168.51 120.25,168.60 C119.94,168.83 119.79,169.31 119.42,169.42 C118.89,169.58 118.28,169.23 117.77,169.42 C117.40,169.56 117.32,170.16 116.94,170.25 C116.56,170.34 112.53,170.28 111.98,170.25 C111.24,170.19 110.33,171.07 107.02,171.07 C105.54,171.00 104.91,171.76 104.55,171.90 C104.04,172.11 101.76,171.92 101.24,172.31 C101.03,172.47 100.76,172.88 100.41,173.55 C98.44,173.37 92.96,176.05 91.74,177.27 C91.38,177.68 89.26,178.27 89.26,178.93 C89.26,179.80 87.57,181.68 85.95,184.71 C85.82,184.95 85.94,185.59 85.54,185.95 C84.31,187.09 84.17,189.05 83.47,190.50 C82.64,192.15 81.11,195.08 80.99,195.45 C80.83,195.98 81.16,196.58 80.99,197.11 C80.87,197.48 80.04,198.22 80.17,199.59 C80.29,200.95 79.75,201.65 79.34,202.07 C79.21,202.35 79.47,205.09 79.34,205.37 C79.18,205.73 78.63,205.83 78.51,206.20 C78.35,206.72 78.71,207.34 78.51,207.85 C78.38,208.22 77.78,208.30 77.69,208.68 C77.59,209.06 77.61,218.43 77.69,218.60 C77.85,218.95 78.67,219.81 78.51,221.07 C78.42,221.78 79.50,223.13 79.34,226.03 C79.29,226.79 80.03,227.32 80.17,227.69 C80.32,228.10 80.08,230.03 80.17,230.17 C82.34,233.36 82.51,235.42 82.64,235.95 C82.75,236.33 85.54,239.67 86.36,240.50 C86.55,240.67 86.87,242.24 88.02,242.15 C88.04,242.15 89.67,243.80 90.91,245.04 C91.03,245.17 92.15,245.45 93.39,246.69 C93.58,246.91 95.04,247.18 95.04,248.35 C95.11,248.72 97.83,249.59 97.93,249.59 C98.76,250.41 101.70,251.95 102.07,252.07 C102.59,252.23 103.20,251.89 103.72,252.07 C104.09,252.19 104.93,253.05 106.20,252.89 C106.91,252.80 108.25,253.88 111.16,253.72 C111.91,253.67 112.46,254.38 112.81,254.55 C112.91,254.59 116.12,254.55 117.77,254.55 C118.56,254.52 119.06,255.22 119.42,255.37 C119.59,255.44 142.44,255.36 142.56,255.37 C143.31,255.43 143.85,254.69 144.21,254.55 C144.40,254.47 146.69,254.55 147.52,254.55 C149.00,254.62 149.65,253.88 150.00,253.72 C150.23,253.61 153.53,253.86 154.13,253.72 C154.73,253.58 156.28,252.74 157.44,252.89 C157.89,252.95 161.33,251.38 161.57,251.24 C163.46,250.17 166.44,247.11 168.18,247.11 C169.82,246.28 171.11,244.92 171.90,244.21 C172.34,243.82 173.56,243.84 173.97,243.80 C174.08,243.80 176.44,241.29 177.27,241.32 C177.29,241.32 178.93,239.67 180.17,238.43 C181.34,237.19 185.17,236.12 185.95,235.12 C186.26,234.72 187.50,234.90 188.02,234.71 C188.38,234.58 188.47,234.01 188.84,233.88 C189.37,233.71 191.32,233.47 192.15,233.06 C193.39,232.64 196.28,230.78 197.11,230.58 C198.86,230.14 199.25,228.10 200.41,228.10 C200.56,228.07 200.89,226.54 202.07,225.62 C202.46,225.31 202.57,224.66 202.48,223.55 C202.41,222.82 203.14,222.26 203.31,221.90 C203.36,221.77 203.30,212.05 203.31,211.98 C203.36,211.24 202.32,209.93 202.48,207.02 C202.53,206.27 201.77,205.74 201.65,205.37 C201.65,204.55 200.95,202.31 200.83,202.07 C200.00,201.24 199.17,199.59 199.17,198.76 C198.33,197.09 195.26,194.10 195.04,192.15 C195.00,191.81 194.21,191.74 193.80,191.74 C193.45,191.67 193.42,190.77 193.39,190.50 C193.38,190.45 187.54,184.56 185.95,183.06 C185.36,182.51 183.61,181.56 183.47,181.40 C179.73,177.30 176.61,175.64 174.79,174.38 C171.49,172.73 167.73,170.37 167.36,170.25 C166.83,170.09 166.22,170.44 165.70,170.25 C165.34,170.12 165.25,169.52 164.88,169.42 C164.60,169.35 155.55,169.43 153.72,169.42" fill="none" stroke="rgb(0, 0, 0)" stroke-width="5.00" stroke-opacity="1.00" stroke-linejoin="round"/>
<path d="M100.83,196.69 C101.81,196.82 102.53,196.01 102.89,195.87 C103.29,195.71 105.26,195.96 105.37,195.87 C105.68,195.64 106.61,194.88 107.85,195.04 C108.56,195.13 109.15,194.37 109.50,194.21 C109.67,194.14 117.54,194.14 117.77,194.21 C118.35,194.41 118.82,194.90 119.42,195.04 C119.96,195.17 120.55,194.86 121.07,195.04 C121.49,195.45 121.94,195.88 123.55,195.87 C123.64,195.87 125.80,198.12 126.86,198.35 C128.27,198.62 128.17,205.20 128.10,205.37 C127.94,205.73 127.39,205.83 127.27,206.20 C127.27,206.75 127.27,207.30 127.27,207.85 C127.15,208.22 126.58,208.31 126.45,208.68 C126.26,209.20 126.44,210.39 126.03,210.74 C124.96,211.60 123.98,211.55 117.77,211.57 C114.46,211.57 105.70,211.55 105.37,211.57 C104.96,211.58 104.96,202.89 104.96,202.89 C104.94,202.80 102.03,199.95 101.24,200.00 C100.81,200.03 99.71,200.03 97.93,200.00 C97.93,200.00 97.52,199.17 97.52,199.17" fill="none" stroke="rgb(0, 0, 0)" stroke-width="5.00" stroke-opacity="1.00" stroke-linejoin="round"/>
<path d="M132.23,202.48 C132.12,202.24 132.86,201.58 133.06,201.24 C133.31,200.84 134.47,200.74 136.78,200.83 C138.30,200.89 138.88,200.12 139.26,200.00 C139.78,199.83 140.39,200.19 140.91,200.00 C141.27,199.87 141.36,199.27 141.74,199.17 C142.07,199.09 149.21,199.18 150.41,199.17" fill="none" stroke="rgb(0, 0, 0)" stroke-width="5.00" stroke-opacity="1.00" stroke-linejoin="round"/>
<path d="M151.24,196.69 C151.26,197.62 151.19,198.68 151.24,198.76 C151.47,199.08 151.95,199.21 152.07,199.59 C152.22,200.12 151.87,200.72 152.07,201.24 C152.20,201.61 152.80,201.69 152.89,202.07 C152.99,202.46 152.95,209.25 153.31,209.92 C160.21,209.91 172.04,209.99 172.31,209.92 C172.50,209.86 173.51,208.87 173.55,208.68 C173.59,208.40 174.24,207.39 174.38,207.02 C174.54,206.61 174.29,204.66 174.38,204.55 C174.61,204.23 175.21,203.72 175.21,202.07 C175.21,198.52 173.68,198.31 172.31,198.35 C171.95,197.41 171.81,196.72 171.49,196.69 C171.20,196.68 158.54,196.71 158.26,196.69 C157.47,196.66 156.98,197.39 156.61,197.52 C156.20,197.68 154.26,197.43 154.13,197.52 C153.87,197.70 151.49,199.29 151.24,199.17" fill="none" stroke="rgb(0, 0, 0)" stroke-width="5.00" stroke-opacity="1.00" stroke-linejoin="round"/>
<path d="M128.10,227.27 C128.10,227.27 130.17,227.27 130.17,227.27 C130.58,228.55 132.50,230.31 134.30,232.23 C134.89,232.86 136.57,233.16 137.19,234.30 C137.19,236.16 139.12,239.01 140.08,239.67 C141.08,240.34 142.21,240.61 143.39,240.50 C143.76,239.55 144.52,237.20 144.63,236.78 C144.99,235.49 147.10,233.53 147.11,233.47 C147.23,232.52 147.98,230.65 148.35,230.58 C149.53,230.58 149.59,230.14 150.41,228.51 C150.54,228.27 150.51,227.46 151.24,226.86 C151.24,226.86 150.83,225.62 150.83,225.62 C150.83,225.62 134.71,225.62 134.71,225.62" fill="none" stroke="rgb(0, 0, 0)" stroke-width="5.00" stroke-opacity="1.00" stroke-linejoin="round"/>
<path d="M136.36,259.50 C136.36,261.02 136.34,265.18 136.36,265.70 C136.40,266.49 135.67,266.99 135.54,267.36 C135.37,267.79 135.62,269.63 135.54,269.83 C135.31,270.41 133.79,274.93 133.88,275.62 C133.98,276.32 133.19,276.91 133.06,277.27 C132.90,277.69 133.14,279.61 133.06,279.75 C132.98,279.88 132.01,280.95 131.82,280.99 C131.40,281.12 131.40,300.41 131.40,300.41 C131.63,300.73 132.36,301.55 132.23,302.89 C132.10,304.26 132.92,305.01 133.06,305.37 C133.22,305.76 132.97,307.73 133.06,307.85 C133.93,309.11 133.87,310.59 133.87,317.35 C133.87,326.06 133.94,337.50 133.88,337.60 C133.14,338.74 132.44,338.88 131.40,338.84" fill="none" stroke="rgb(0, 0, 0)" stroke-width="5.00" stroke-opacity="1.00" stroke-linejoin="round"/>
<path d="M71.07,150.41 C71.32,152.24 66.94,157.44 66.53,157.85 C66.12,158.21 63.34,163.52 62.81,164.05 C62.67,164.29 62.79,165.34 62.40,165.70 C62.24,165.84 61.83,166.12 61.16,166.53 C61.28,167.16 60.45,167.81 60.33,168.18 C60.16,168.71 60.47,169.30 60.33,169.83 C60.23,170.21 58.43,172.78 57.44,173.55 C57.03,173.87 55.50,179.51 55.37,179.75 C55.19,180.09 54.39,180.99 54.55,182.23 C54.64,182.94 53.87,183.53 53.72,183.88 C53.66,184.04 53.70,218.37 53.72,218.60 C53.78,219.31 52.89,221.06 52.89,221.07 C52.81,221.52 52.85,238.38 52.89,238.43 C53.90,239.53 53.62,241.71 54.55,242.56 C55.07,243.03 57.43,248.79 57.85,249.17 C58.65,249.89 58.98,251.14 59.09,251.24 C59.45,251.55 60.62,252.84 60.74,252.89 C61.00,253.00 61.91,252.94 61.98,253.31 C61.98,254.49 63.14,254.64 64.05,255.37 C68.21,258.68 71.71,260.45 72.31,260.33 C73.31,261.96 74.05,261.99 75.62,262.81 C75.64,262.82 76.48,262.81 76.86,263.22 C78.93,265.29 83.95,268.66 86.36,269.42 C86.63,269.50 88.13,270.25 89.67,271.07 C91.18,271.80 96.23,271.85 96.28,271.90 C96.56,272.17 97.22,272.78 98.76,272.73 C99.17,272.71 104.96,272.74 105.37,272.73 C106.92,272.68 107.44,273.14 107.85,273.55 C107.96,273.60 117.66,273.50 117.77,273.55 C118.11,273.73 118.22,274.26 118.60,274.38 C119.12,274.55 121.07,274.79 121.90,275.21 C122.49,275.40 124.10,276.19 125.21,276.03 C125.91,275.94 126.50,276.72 126.86,276.86 C127.17,276.99 129.87,276.73 130.17,276.86 C130.52,277.01 130.64,277.53 130.99,277.69 C131.37,277.86 133.36,278.54 136.78,278.51 C141.64,278.48 144.20,279.41 146.69,279.34 C147.46,279.32 157.97,279.32 158.26,279.34 C159.02,279.39 159.54,278.62 159.92,278.51 C160.45,278.36 161.06,278.71 161.57,278.51 C161.93,278.37 162.02,277.77 162.40,277.69 C163.20,277.50 166.47,277.74 166.53,277.69 C166.80,277.41 167.77,276.70 169.01,276.86 C169.72,276.95 178.14,273.12 179.75,272.73 C180.65,272.51 181.85,271.17 182.23,271.07 C182.76,270.94 185.29,270.37 185.54,270.25 C187.21,269.40 189.52,266.94 191.32,266.94 C194.66,265.25 197.10,262.76 197.93,262.81 C198.48,261.89 202.07,259.50 204.13,257.44 C204.27,257.28 207.85,255.37 209.92,253.31 C210.30,252.89 211.88,252.17 212.81,252.07 C213.15,252.02 213.22,251.24 213.22,250.83 C213.29,250.48 214.19,250.44 214.46,250.41 C214.50,250.41 218.96,245.91 219.01,245.87 C219.82,245.14 219.83,244.21 221.90,242.15 C222.31,241.77 222.31,241.32 222.31,240.91 C222.32,240.88 225.62,237.69 225.62,235.95 C226.03,235.54 226.31,234.54 226.45,234.30 C226.63,233.95 227.34,233.29 227.27,231.82 C227.27,228.51 228.15,226.45 228.10,226.03 C228.01,225.32 228.77,224.74 228.93,224.38 C228.99,224.23 228.91,204.81 228.93,204.55 C228.99,203.03 228.27,202.42 228.10,202.07 C228.05,201.96 228.15,192.26 228.10,192.15 C227.92,191.80 227.11,190.93 227.27,189.67 C227.36,188.96 226.59,188.38 226.45,188.02 C226.32,187.71 226.57,185.02 226.45,184.71 C226.30,184.35 225.62,183.47 225.62,183.06 C225.43,182.72 224.63,181.82 224.79,180.58 C224.88,179.87 224.10,179.29 223.97,178.93 C223.81,178.51 224.06,176.56 223.97,176.45 C223.73,176.14 223.25,175.99 223.14,175.62 C222.98,175.09 223.31,174.49 223.14,173.97 C223.02,173.60 222.45,173.51 222.31,173.14 C222.13,172.62 222.31,171.38 221.90,171.07 C221.49,170.66 220.67,169.94 220.66,169.83 C220.53,167.98 218.53,163.73 217.77,163.64 C217.50,163.60 211.17,161.16 211.16,161.16 C211.13,161.16 209.92,159.92 209.09,159.09 C208.95,158.94 204.72,156.35 203.49,155.13 C203.01,154.66 202.54,154.19 202.07,153.72 C202.07,153.72 201.65,153.72 201.65,153.72" fill="none" stroke="rgb(0, 0, 0)" stroke-width="5.00" stroke-opacity="1.00" stroke-linejoin="round"/>
<path d="M92.56,133.88 C91.64,133.91 90.57,133.83 90.50,133.88 C90.17,134.10 89.43,134.81 88.02,134.71 C86.36,134.61 85.59,135.60 84.30,136.78 C83.52,137.48 82.78,139.84 82.64,140.08 C82.47,140.43 81.77,141.01 81.82,142.56 C81.89,144.40 81.79,146.66 81.82,146.69 C82.66,147.65 82.64,148.35 84.71,150.41 C85.12,150.79 85.07,151.38 85.12,151.65 C85.19,152.02 89.65,153.75 90.50,153.72 C91.17,153.69 94.42,153.75 94.63,153.72 C94.68,153.71 95.45,152.89 95.87,152.48 C95.90,152.42 95.94,138.60 95.87,138.43 C95.70,138.08 94.92,137.22 95.04,135.54" fill="none" stroke="rgb(0, 0, 0)" stroke-width="5.00" stroke-opacity="1.00" stroke-linejoin="round"/>
<path d="M187.60,132.23 C187.25,132.14 183.64,135.88 183.06,136.36 C182.65,136.71 182.66,138.40 182.64,138.43 C182.50,138.79 181.91,138.88 181.82,139.26 C181.73,139.64 181.86,143.76 181.82,144.21 C181.77,144.94 182.86,146.09 183.88,146.28 C184.30,146.36 184.53,148.76 187.19,148.76 C188.84,150.41 192.15,151.24 192.15,151.24 C192.73,151.45 194.02,152.11 197.11,152.07 C197.93,152.05 200.01,152.01 200.00,151.65 C199.91,150.97 200.66,150.35 200.83,150.00 C200.88,149.87 200.82,138.61 200.83,138.43 C200.86,137.61 199.18,136.02 199.17,135.95 C198.96,133.92 197.04,129.85 196.28,129.75 C196.01,129.72 194.99,129.07 194.63,128.93 C194.44,128.85 192.53,128.95 191.74,128.93" fill="none" stroke="rgb(0, 0, 0)" stroke-width="5.00" stroke-opacity="1.00" stroke-linejoin="round"/>
<path d="M105.79,25.62 C105.81,26.54 105.73,27.61 105.79,27.69 C106.00,28.01 106.66,28.62 106.61,30.17 C106.61,31.82 106.56,35.03 106.61,35.12 C106.78,35.47 107.50,36.10 107.44,37.60 C107.42,38.03 107.50,63.86 107.44,64.05 C107.24,64.63 106.52,66.18 106.61,69.01 C106.65,70.10 106.65,73.23 106.61,73.97 C106.54,75.45 107.32,76.08 107.44,76.45 C107.61,76.97 107.28,77.57 107.44,78.10 C107.56,78.47 108.31,80.06 109.50,80.99 C109.91,81.30 109.70,82.55 109.92,83.06 C110.06,83.42 110.65,83.51 110.74,83.88 C110.83,84.27 110.78,88.29 110.74,88.84 C110.69,89.59 111.41,90.14 111.57,90.50 C111.62,90.60 111.57,96.28 111.57,97.11 C112.59,97.58 126.81,97.56 126.86,97.52 C127.90,96.63 129.67,96.71 135.67,96.71 C139.11,96.70 147.33,96.68 147.52,96.69 C148.25,96.76 149.57,95.71 152.48,95.87 C153.24,95.92 153.77,95.20 154.13,95.04 C154.29,94.98 170.62,95.04 170.66,95.04 C170.85,95.06 174.82,93.39 175.21,92.98 C176.86,91.74 179.42,89.54 179.34,88.84 C179.18,87.53 180.07,86.74 180.17,86.36 C180.23,86.09 180.11,80.91 180.17,79.75 C180.20,78.96 179.34,78.10 179.34,74.79 C179.41,73.31 178.67,72.67 178.51,72.31 C178.45,72.18 178.57,64.18 178.51,64.05 C178.35,63.69 177.61,63.05 177.69,61.57 C177.69,58.26 176.73,55.37 176.86,53.31 C176.95,51.83 175.09,47.87 175.21,45.87 C174.21,45.38 173.58,44.50 173.55,43.39 C173.55,43.11 172.84,42.11 172.73,41.74 C172.57,41.21 172.90,40.61 172.73,40.08 C172.61,39.71 171.77,38.97 171.90,37.60 C172.03,36.24 171.19,35.49 171.07,35.12 C170.91,34.60 171.27,33.99 171.07,33.47 C170.94,33.10 170.35,33.02 170.25,32.64 C170.18,32.36 170.25,27.69 170.25,26.03 C170.23,23.84 170.26,23.15 169.83,23.14 C154.96,23.14 122.80,23.09 122.73,23.14 C122.41,23.37 121.78,24.02 120.25,23.97 C119.86,23.95 115.29,23.97 113.64,23.97 C113.64,23.97 113.22,24.79 113.22,24.79" fill="none" stroke="rgb(0, 0, 0)" stroke-width="5.00" stroke-opacity="1.00" stroke-linejoin="round"/>
<path d="M123.14,77.69 C123.14,77.69 123.97,77.27 123.97,77.27 C123.99,76.14 123.90,74.12 123.97,73.97 C124.12,73.61 124.90,72.91 124.79,71.49 C124.65,69.63 125.42,67.94 125.62,67.36 C125.71,67.10 126.33,66.07 126.45,65.70 C126.61,65.18 126.27,64.57 126.45,64.05 C126.57,63.68 127.43,62.83 127.27,61.57 C127.18,60.86 127.98,60.29 128.10,59.92 C128.28,59.40 128.14,57.72 128.51,57.44 C130.48,55.97 132.84,52.72 133.06,51.65 C133.13,51.28 135.37,50.73 135.54,50.00 C135.82,48.88 136.43,48.30 138.43,46.28 C139.80,46.91 140.50,47.40 140.50,47.93 C140.49,49.15 141.14,49.66 141.32,50.00 C142.12,51.58 142.06,54.00 142.15,54.13 C142.72,54.97 144.79,59.48 144.63,60.74 C144.61,60.91 146.29,64.93 146.69,65.29 C147.93,66.53 148.06,67.48 148.76,68.18 C148.89,68.42 148.80,69.35 149.17,69.42 C151.35,69.84 152.11,72.47 152.48,72.73 C152.48,72.73 152.07,72.73 152.07,72.73" fill="none" stroke="rgb(0, 0, 0)" stroke-width="5.00" stroke-opacity="1.00" stroke-linejoin="round"/>
<path d="M122.31,62.81 C125.44,62.82 134.75,62.83 135.12,62.81 C136.59,62.73 137.59,62.17 138.43,61.16 C138.43,61.16 138.84,61.16 138.84,61.16" fill="none" stroke="rgb(0, 0, 0)" stroke-width="5.00" stroke-opacity="1.00" stroke-linejoin="round"/>
<path d="M46.28,12.40 C46.28,15.66 46.26,24.16 46.28,24.38 C46.46,25.79 53.09,25.55 53.31,25.62 C53.89,25.81 55.91,26.62 58.26,26.45 C59.03,26.39 59.56,27.13 59.92,27.27 C60.06,27.33 68.05,27.21 68.18,27.27 C68.54,27.43 69.11,28.15 70.66,28.10 C71.11,28.08 75.21,28.10 76.45,28.10 C75.31,28.08 73.31,28.17 73.14,28.10 C72.78,27.95 67.07,24.77 65.29,22.73 C65.16,22.57 63.22,22.31 61.98,21.07 C61.67,20.67 60.44,20.84 59.92,20.66 C59.55,20.54 57.81,19.13 57.44,19.01 C56.61,19.01 54.94,18.17 54.13,18.18 C54.10,18.18 52.59,16.69 52.07,16.12 C51.70,15.71 51.52,15.69 50.41,15.70" fill="none" stroke="rgb(0, 0, 0)" stroke-width="5.00" stroke-opacity="1.00" stroke-linejoin="round"/>
<path d="M48.76,51.24 C48.64,51.49 50.29,53.76 50.41,54.13 C50.57,54.66 50.22,55.27 50.41,55.79 C50.55,56.15 51.14,56.23 51.24,56.61 C51.31,56.87 51.22,60.97 51.24,63.22 C52.30,63.70 58.98,63.69 59.09,63.64 C59.44,63.47 60.31,62.65 61.57,62.81 C62.28,62.90 62.86,62.13 63.22,61.98 C63.55,61.85 66.13,62.11 66.53,61.98 C67.12,61.80 67.58,61.30 68.18,61.16 C68.72,61.03 69.32,61.36 69.83,61.16 C70.20,61.01 70.28,60.42 70.66,60.33 C71.33,60.17 75.45,60.42 75.62,60.33 C75.97,60.16 76.84,59.34 78.10,59.50 C78.81,59.59 79.38,58.79 79.75,58.68 C80.28,58.52 80.88,58.85 81.40,58.68 C81.77,58.55 82.55,57.73 83.88,57.85 C82.23,57.85 77.59,57.84 77.27,57.85 C76.48,57.88 75.99,57.16 75.62,57.02 C75.21,56.87 73.27,57.11 73.14,57.02 C70.57,55.28 69.57,54.19 68.18,53.72 C67.66,53.54 66.42,53.71 66.12,53.31 C65.34,52.31 60.29,49.71 59.92,49.59 C59.39,49.43 58.79,49.76 58.26,49.59 C57.99,49.31 57.71,49.04 57.44,48.76 C56.91,48.59 56.30,48.95 55.79,48.76 C55.42,48.62 55.34,48.02 54.96,47.93 C53.88,47.69 50.00,47.93 50.00,47.93 C49.64,48.09 49.04,48.88 48.76,48.76" fill="none" stroke="rgb(0, 0, 0)" stroke-width="5.00" stroke-opacity="1.00" stroke-linejoin="round"/>
<path d="M61.98,100.83 C61.98,100.83 62.40,100.83 62.40,100.83 C62.76,101.07 62.79,101.79 62.81,102.07 C62.81,102.10 66.53,106.61 67.36,107.44 C67.77,107.82 69.50,111.95 69.42,112.81 C70.04,113.02 71.06,113.35 71.07,113.64 C71.12,114.19 71.09,115.40 71.49,115.70 C72.66,116.62 73.00,118.16 73.14,118.18 C74.33,118.18 74.38,118.62 75.21,120.25 C75.33,120.49 75.80,121.59 76.03,121.90 C76.65,122.71 77.51,123.30 78.10,123.97 C78.10,123.97 79.34,123.55 79.34,123.55 C79.34,123.55 80.01,119.95 80.17,119.42 C80.28,119.05 86.39,106.79 87.19,106.61 C87.46,106.55 88.39,106.54 88.43,106.20 C88.55,105.25 89.73,104.08 90.50,104.13 C90.51,104.13 92.15,102.48 93.39,101.24 C93.64,100.97 94.63,100.83 96.69,98.76 C97.08,98.35 98.90,98.35 99.17,97.11 C99.22,96.92 99.17,96.26 99.59,95.87 C100.83,94.63 102.48,92.99 102.48,92.98 C102.35,92.41 102.59,91.92 103.31,91.32 C102.87,90.26 100.00,91.74 99.59,91.74 C99.24,91.92 98.35,92.72 97.11,92.56 C96.40,92.47 95.82,93.25 95.45,93.39 C95.04,93.55 93.09,93.30 92.98,93.39 C92.66,93.62 91.84,94.34 90.50,94.21 C89.15,94.09 88.36,94.86 88.02,95.04 C87.60,95.04 85.96,96.03 83.06,95.87 C82.30,95.82 81.76,96.53 81.40,96.69 C81.30,96.74 78.10,96.69 76.45,96.69 C75.65,96.66 75.15,97.37 74.79,97.52 C74.38,97.70 62.26,97.45 61.98,97.93 C61.98,97.93 61.98,98.35 61.98,98.35" fill="none" stroke="rgb(0, 0, 0)" stroke-width="5.00" stroke-opacity="1.00" stroke-linejoin="round"/>
<path d="M192.56,85.12 C196.79,85.08 197.36,85.16 198.35,86.36 C198.66,86.76 199.30,86.87 200.41,86.78 C201.15,86.71 201.69,87.49 202.07,87.60 C202.59,87.76 203.20,87.43 203.72,87.60 C204.09,87.72 204.93,88.59 206.20,88.43 C206.91,88.34 207.48,89.14 207.85,89.26 C208.37,89.43 209.61,89.26 209.92,89.67 C210.33,90.08 211.05,90.90 211.16,90.91 C211.71,90.95 215.20,91.75 215.29,91.74 C216.00,91.65 216.58,92.42 216.94,92.56 C217.25,92.69 219.94,92.44 220.25,92.56 C220.61,92.71 222.06,93.43 222.31,93.80 C221.60,94.40 221.47,94.66 221.49,95.45 C221.49,95.49 217.36,99.55 217.36,99.59 C217.25,100.95 215.08,101.94 214.46,102.48 C213.22,103.60 209.88,112.14 209.50,112.40 C209.50,112.40 204.96,107.02 204.96,107.02 C204.97,106.18 204.29,105.55 201.24,102.48 C200.21,101.03 198.95,99.37 197.93,99.17 C197.79,99.15 196.69,97.11 196.28,96.69 C196.07,96.51 195.79,95.04 194.63,95.04 C194.48,95.02 193.39,92.98 192.98,92.56 C191.34,91.15 190.90,87.94 190.50,87.60 C190.19,87.36 189.50,86.67 189.26,86.78" fill="none" stroke="rgb(0, 0, 0)" stroke-width="5.00" stroke-opacity="1.00" stroke-linejoin="round"/>
<path d="M197.52,50.41 C197.41,50.17 198.15,49.51 198.35,49.17 C198.61,48.77 230.42,48.76 235.12,48.76 C235.48,49.38 235.52,52.20 235.54,53.31 C235.55,53.85 234.70,55.80 234.75,59.61 C234.76,61.24 234.70,61.62 234.30,61.98 C233.43,62.85 232.26,62.79 226.03,62.81 C224.17,62.80 220.03,62.79 219.42,62.81 C217.91,62.87 217.31,62.12 216.94,61.98 C216.55,61.82 214.58,62.07 214.46,61.98 C214.15,61.75 213.33,61.03 211.98,61.16 C210.62,61.28 209.92,60.74 209.50,60.33 C209.28,60.23 206.61,60.40 206.20,60.33 C206.10,60.31 205.37,59.50 204.96,59.09 C204.65,58.69 203.97,58.58 202.89,58.68 C202.22,58.74 201.01,58.01 200.41,57.85 C199.87,57.70 198.06,57.95 197.93,57.85 C196.67,56.91 194.61,57.10 194.21,56.61 C194.21,56.61 194.21,56.20 194.21,56.20" fill="none" stroke="rgb(0, 0, 0)" stroke-width="5.00" stroke-opacity="1.00" stroke-linejoin="round"/>
<path d="M181.82,28.10 C182.14,28.25 183.84,26.46 183.88,26.45 C184.15,26.37 185.06,26.38 185.12,26.03 C185.12,24.85 185.77,24.77 187.19,23.97 C187.43,23.83 188.91,23.75 189.67,23.14 C189.97,22.90 190.12,22.41 190.50,22.31 C191.03,22.18 191.63,22.49 192.15,22.31 C192.98,21.49 195.45,20.66 197.11,20.66 C197.48,20.54 197.57,19.97 197.93,19.83 C198.45,19.65 199.69,19.83 200.00,19.42 C200.41,19.01 201.13,18.19 201.24,18.18 C201.79,18.14 204.06,17.84 206.61,15.29 C206.97,14.88 208.69,14.04 209.50,14.05 C209.53,14.05 210.74,12.81 211.57,11.98 C211.71,11.83 213.64,10.74 214.05,10.33 C214.41,9.93 216.06,9.15 216.94,9.09 C216.98,9.09 217.61,8.40 218.60,7.44 C219.91,8.77 220.65,10.32 221.49,11.16 C221.62,11.40 221.53,12.33 221.90,12.40 C223.09,12.40 223.14,12.83 223.97,14.46 C223.97,16.83 225.42,17.44 226.45,17.77 C226.41,18.20 227.77,21.48 226.86,22.31 C226.56,22.56 225.89,23.22 225.21,23.14 C223.89,22.98 223.11,23.87 222.73,23.97 C222.37,24.05 203.04,23.97 202.89,23.97 C202.10,23.94 201.60,24.65 201.24,24.79 C200.93,24.92 198.22,24.67 197.93,24.79 C197.52,25.21 196.82,25.75 195.45,25.62 C194.09,25.49 193.32,26.27 192.98,26.45 C192.88,26.49 189.67,26.45 188.02,26.45 C187.22,26.42 186.36,27.27 186.36,27.27 C185.95,27.43 184.02,27.18 183.88,27.27 C183.56,27.48 182.90,28.22 182.64,28.10" fill="none" stroke="rgb(0, 0, 0)" stroke-width="5.00" stroke-opacity="1.00" stroke-linejoin="round"/>
</g>
</svg>
