<?xml version="1.0" encoding="UTF-8" standalone="no"?>
<!DOCTYPE svg PUBLIC "-//W3C//DTD SVG 1.1//EN" "http://www.w3.org/Graphics/SVG/1.1/DTD/svg11.dtd">
<svg width="62.40" height="93.60" viewBox="0.00 0.00 260.00 390.00" xmlns="http://www.w3.org/2000/svg" xmlns:xlink="http://www.w3.org/1999/xlink">
<g stroke-linecap="round" id="Layer_6">
<path d="M101.18,186.33 C101.18,186.33 95.92,186.33 95.92,186.33 C95.92,186.33 92.41,185.83 92.41,185.83 C92.41,185.83 89.91,186.33 89.91,186.33 C89.91,186.33 87.90,186.83 87.90,186.83 C87.90,186.83 85.90,187.33 85.90,187.33 C85.90,187.33 78.39,188.33 78.39,188.33 C78.39,188.33 73.88,188.83 73.88,188.83 C73.88,188.83 71.37,189.33 71.37,189.33 C71.37,189.33 67.87,189.83 67.87,189.83 C67.87,189.83 65.87,190.33 65.87,190.33 C65.87,190.33 64.36,190.83 64.36,190.83 C64.36,190.83 63.36,191.84 63.36,191.84 C63.36,191.84 61.86,191.84 61.86,191.84 C61.86,191.84 59.85,192.34 59.85,192.34 C59.85,192.34 58.85,192.84 58.85,192.84 C58.85,192.84 57.85,193.84 57.85,193.84 C57.85,193.84 56.85,193.84 56.85,193.84 C56.85,193.84 55.35,194.34 55.35,194.34 C55.35,194.34 54.35,194.84 54.35,194.84 C54.35,194.84 52.34,196.34 52.34,196.34 C52.34,196.34 51.34,196.34 51.34,196.34 C51.34,196.34 50.34,197.35 50.34,197.35 C50.34,197.35 47.83,199.35 47.83,199.35 C47.83,199.35 47.08,200.10 47.08,200.10 C47.08,200.10 45.83,201.35 45.83,201.35 C45.83,201.35 45.08,202.10 45.08,202.10 C45.08,202.10 43.83,203.36 43.83,203.36 C43.83,203.36 40.07,206.61 40.07,206.61 C40.07,206.61 39.32,207.36 39.32,207.36 C39.32,207.36 38.57,208.62 38.57,208.62 C38.57,208.62 38.07,209.62 38.07,209.62 C38.07,209.62 37.06,211.12 37.06,211.12 C37.06,211.12 37.06,212.12 37.06,212.12 C37.06,212.12 36.56,214.63 36.56,214.63 C36.56,214.63 36.06,219.13 36.06,219.13 C36.06,219.13 35.56,231.15 35.56,231.15 C35.56,231.15 36.06,233.66 36.06,233.66 C36.06,233.66 36.56,237.17 36.56,237.17 C36.56,237.17 37.06,239.67 37.06,239.67 C37.06,239.67 37.57,242.17 37.57,242.17 C37.57,242.17 38.07,244.68 38.07,244.68 C38.07,244.68 39.57,248.69 39.57,248.69 C39.57,248.69 39.57,249.69 39.57,249.69 C39.57,249.69 40.57,251.69 40.57,251.69 C40.57,251.69 42.07,253.19 42.07,253.19 C42.07,253.19 42.57,254.19 42.57,254.19 C42.57,254.19 43.33,254.95 43.33,254.95 C43.33,254.95 44.08,256.20 44.08,256.20 C44.08,256.20 44.58,257.20 44.58,257.20 C44.58,257.20 45.33,257.95 45.33,257.95 C45.33,257.95 46.08,259.20 46.08,259.20 C46.08,259.20 46.83,260.46 46.83,260.46 C46.83,260.46 48.59,261.71 48.59,261.71 C48.59,261.71 49.34,262.96 49.34,262.96 C49.34,262.96 50.59,263.71 50.59,263.71 C50.59,263.71 51.34,264.96 51.34,264.96 C51.34,264.96 55.85,268.47 55.85,268.47 C55.85,268.47 57.35,269.47 57.35,269.47 C57.35,269.47 59.35,270.97 59.35,270.97 C59.35,270.97 60.36,271.48 60.36,271.48 C60.36,271.48 61.86,272.48 61.86,272.48 C61.86,272.48 62.86,272.98 62.86,272.98 C62.86,272.98 63.86,273.48 63.86,273.48 C63.86,273.48 65.36,274.48 65.36,274.48 C65.36,274.48 66.37,274.98 66.37,274.98 C66.37,274.98 67.37,275.48 67.37,275.48 C67.37,275.48 68.37,275.48 68.37,275.48 C68.37,275.48 69.37,276.48 69.37,276.48 C69.37,276.48 70.37,276.48 70.37,276.48 C70.37,276.48 71.37,276.98 71.37,276.98 C71.37,276.98 72.38,277.49 72.38,277.49 C72.38,277.49 73.38,277.99 73.38,277.99 C73.38,277.99 74.38,278.49 74.38,278.49 C74.38,278.49 75.88,278.99 75.88,278.99 C75.88,278.99 77.39,279.49 77.39,279.49 C77.39,279.49 78.39,279.99 78.39,279.99 C78.39,279.99 79.39,280.49 79.39,280.49 C79.39,280.49 80.89,280.99 80.89,280.99 C80.89,280.99 82.90,281.49 82.90,281.49 C82.90,281.49 84.90,281.99 84.90,281.99 C84.90,281.99 85.90,282.49 85.90,282.49 C85.90,282.49 88.40,283.00 88.40,283.00 C88.40,283.00 91.91,283.50 91.91,283.50 C91.91,283.50 95.42,284.00 95.42,284.00 C95.42,284.00 97.42,284.50 97.42,284.50 C97.42,284.50 101.43,285.00 101.43,285.00 C101.43,285.00 109.94,285.50 109.94,285.50 C109.94,285.50 110.94,284.50 110.94,284.50 C110.94,284.50 112.45,284.50 112.45,284.50 C112.45,284.50 114.95,284.00 114.95,284.00 C114.95,284.00 117.96,283.50 117.96,283.50 C117.96,283.50 119.46,281.99 119.46,281.99 C119.46,281.99 120.71,281.24 120.71,281.24 C120.71,281.24 121.46,280.49 121.46,280.49 C121.46,280.49 123.97,277.99 123.97,277.99 C123.97,277.99 126.97,275.48 126.97,275.48 C126.97,275.48 128.47,274.73 128.47,274.73 C128.47,274.73 129.98,272.98 129.98,272.98 C129.98,272.98 130.73,272.23 130.73,272.23 C130.73,272.23 133.98,269.47 133.98,269.47 C133.98,269.47 134.99,268.97 134.99,268.97 C134.99,268.97 137.99,266.97 137.99,266.97 C137.99,266.97 138.74,266.22 138.74,266.22 C138.74,266.22 140.00,264.96 140.00,264.96 C140.00,264.96 140.75,264.21 140.75,264.21 C140.75,264.21 141.75,263.21 141.75,263.21 C141.75,263.21 142.00,262.21 142.00,262.21 C142.00,262.21 143.25,261.21 143.25,261.21 C143.25,261.21 144.25,259.70 144.25,259.70 C144.25,259.70 145.25,258.70 145.25,258.70 C145.25,258.70 145.25,257.70 145.25,257.70 C145.25,257.70 146.26,256.70 146.26,256.70 C146.26,256.70 147.26,255.20 147.26,255.20 C147.26,255.20 147.76,254.19 147.76,254.19 C147.76,254.19 148.26,253.19 148.26,253.19 C148.26,253.19 148.76,252.19 148.76,252.19 C148.76,252.19 149.26,251.19 149.26,251.19 C149.26,251.19 149.26,249.69 149.26,249.69 C149.26,249.69 149.76,248.18 149.76,248.18 C149.76,248.18 150.26,246.93 150.26,246.93" fill="none" stroke="rgb(0, 0, 0)" stroke-width="5.00" stroke-opacity="1.00" stroke-linejoin="round"/>
<path d="M105.18,187.83 C105.18,187.83 117.96,187.83 117.96,187.83 C117.96,187.83 120.46,188.33 120.46,188.33 C120.46,188.33 122.97,188.83 122.97,188.83 C122.97,188.83 125.47,189.33 125.47,189.33 C125.47,189.33 126.47,190.33 126.47,190.33 C126.47,190.33 127.97,190.33 127.97,190.33 C127.97,190.33 130.98,192.34 130.98,192.34 C130.98,192.34 133.98,193.34 133.98,193.34 C133.98,193.34 134.99,193.84 134.99,193.84 C134.99,193.84 135.99,194.84 135.99,194.84 C135.99,194.84 138.49,195.84 138.49,195.84 C138.49,195.84 139.49,197.35 139.49,197.35 C139.49,197.35 140.25,198.10 140.25,198.10 C140.25,198.10 144.25,202.10 144.25,202.10 C144.25,202.10 145.25,203.61 145.25,203.61 C145.25,203.61 146.26,205.11 146.26,205.11 C146.26,205.11 146.76,206.11 146.76,206.11 C146.76,206.11 147.51,207.36 147.51,207.36 C147.51,207.36 148.76,208.11 148.76,208.11 C148.76,208.11 149.26,209.12 149.26,209.12 C149.53,210.18 150.28,210.50 150.26,212.62 C150.26,213.18 150.26,216.88 150.26,217.13 C150.26,217.13 150.76,236.16 150.76,236.16 C150.76,236.16 150.26,238.17 150.26,238.17 C150.26,238.17 149.76,244.18 149.76,244.18 C149.76,244.18 149.26,247.18 149.26,247.18 C149.26,247.18 148.76,250.19 148.76,250.19 C148.76,250.19 148.26,250.44 148.26,250.44" fill="none" stroke="rgb(0, 0, 0)" stroke-width="5.00" stroke-opacity="1.00" stroke-linejoin="round"/>
<path d="M98.67,263.46 C98.67,263.46 98.92,263.46 98.92,263.46 C98.92,263.46 100.68,261.21 100.68,261.21 C100.68,261.21 101.93,259.45 101.93,259.45 C101.93,259.45 103.93,257.95 103.93,257.95 C103.93,257.95 107.44,254.95 107.44,254.95 C107.44,254.95 108.19,254.19 108.19,254.19 C108.19,254.19 111.45,251.94 111.45,251.94 C111.45,251.94 112.45,251.44 112.45,251.44 C112.45,251.44 113.95,251.44 113.95,251.44 C113.95,251.44 115.95,250.94 115.95,250.94 C115.95,250.94 117.71,250.44 117.71,250.44" fill="none" stroke="rgb(0, 0, 0)" stroke-width="5.00" stroke-opacity="1.00" stroke-linejoin="round"/>
<path d="M84.15,264.46 C84.15,264.46 87.90,264.46 87.90,264.46 C87.90,264.46 90.41,263.96 90.41,263.96 C90.41,263.96 102.43,263.46 102.43,263.46 C102.43,263.46 103.93,264.96 103.93,264.96 C103.93,264.96 105.18,265.72 105.18,265.72 C105.18,265.72 105.94,266.97 105.94,266.97 C105.94,266.97 109.19,269.72 109.19,269.72 C109.19,269.72 109.19,269.97 109.19,269.97" fill="none" stroke="rgb(0, 0, 0)" stroke-width="5.00" stroke-opacity="1.00" stroke-linejoin="round"/>
<path d="M113.70,250.44 C113.70,250.44 114.95,250.44 114.95,250.44 C114.95,250.44 115.95,249.44 115.95,249.44 C115.95,249.44 116.95,248.43 116.95,248.43 C116.95,248.43 117.96,248.43 117.96,248.43 C117.96,248.43 119.46,247.18 119.46,247.18 C119.46,247.18 120.96,245.43 120.96,245.43 C120.96,245.43 121.96,245.43 121.96,245.43 C121.96,245.43 122.46,244.43 122.46,244.43 C122.46,244.43 123.97,243.43 123.97,243.43 C123.97,243.43 124.97,242.93 124.97,242.93 C124.97,242.93 126.97,241.42 126.97,241.42 C126.97,241.42 127.97,240.92 127.97,240.92 C127.97,240.92 129.48,239.92 129.48,239.92 C129.48,239.92 130.98,238.92 130.98,238.92 C130.98,238.92 131.98,238.92 131.98,238.92 C131.98,238.92 132.48,237.92 132.48,237.92 C132.48,237.92 133.48,237.92 133.48,237.92 C133.48,237.92 134.49,237.42 134.49,237.42 C134.49,237.42 135.49,236.41 135.49,236.41 C135.49,236.41 137.49,234.91 137.49,234.91 C137.49,234.91 138.24,234.16 138.24,234.16 C138.24,234.16 140.25,232.66 140.25,232.66 C140.25,232.66 141.50,230.90 141.50,230.90 C141.50,230.90 142.25,230.15 142.25,230.15 C142.25,230.15 143.50,228.90 143.50,228.90 C143.50,228.90 144.25,228.15 144.25,228.15 C144.25,228.15 145.50,227.40 145.50,227.40 C145.50,227.40 147.51,226.15 147.51,226.15 C147.51,226.15 150.51,223.39 150.51,223.39 C150.51,223.39 152.02,222.39 152.02,222.39 C152.02,222.39 152.77,221.64 152.77,221.64 C152.77,221.64 157.02,218.38 157.02,218.38 C157.02,218.38 158.53,217.38 158.53,217.38 C158.53,217.38 159.53,216.88 159.53,216.88 C159.53,216.88 160.53,216.88 160.53,216.88 C160.53,216.88 162.03,215.38 162.03,215.38 C162.03,215.38 164.04,214.88 164.04,214.88 C164.04,214.88 165.04,214.38 165.04,214.38 C165.04,214.38 166.04,213.87 166.04,213.87 C166.04,213.87 167.04,212.87 167.04,212.87 C167.04,212.87 168.04,212.37 168.04,212.37 C168.04,212.37 169.55,211.37 169.55,211.37 C169.55,211.37 170.55,210.87 170.55,210.87 C170.55,210.87 172.05,209.87 172.05,209.87 C172.05,209.87 173.05,209.37 173.05,209.37 C173.05,209.37 175.06,208.36 175.06,208.36 C175.06,208.36 176.56,208.36 176.56,208.36 C176.56,208.36 177.56,207.86 177.56,207.86 C177.56,207.86 179.06,207.36 179.06,207.36 C179.06,207.36 181.57,206.86 181.57,206.86 C181.57,206.86 183.07,206.36 183.07,206.36 C183.07,206.36 184.07,205.36 184.07,205.36 C184.07,205.36 185.07,205.36 185.07,205.36 C185.07,205.36 187.08,204.36 187.08,204.36 C187.08,204.36 188.08,203.86 188.08,203.86 C188.08,203.86 188.58,202.86 188.58,202.86 C188.58,202.86 189.58,202.86 189.58,202.86 C189.58,202.86 191.08,202.35 191.08,202.35 C191.08,202.35 192.59,200.85 192.59,200.85 C192.59,200.85 193.59,200.85 193.59,200.85 C193.59,200.85 195.09,200.60 195.09,200.60 C195.09,200.60 196.59,202.35 196.59,202.35 C196.59,202.35 198.35,203.61 198.35,203.61 C198.35,203.61 199.10,204.36 199.10,204.36 C199.10,204.36 199.85,205.61 199.85,205.61 C199.85,205.61 199.85,212.12 199.85,212.12 C199.85,212.12 199.35,213.12 199.35,213.12 C199.35,213.12 197.85,215.13 197.85,215.13 C197.85,215.13 197.10,216.38 197.10,216.38 C197.10,216.38 195.84,217.13 195.84,217.13 C195.84,217.13 195.09,217.88 195.09,217.88 C195.09,217.88 188.08,218.38 188.08,218.38 C188.08,218.38 183.07,218.88 183.07,218.88 C183.07,218.88 180.57,219.38 180.57,219.38 C180.57,219.38 179.56,219.88 179.56,219.88 C179.56,219.88 178.56,220.89 178.56,220.89 C178.56,220.89 177.06,221.89 177.06,221.89 C177.06,221.89 176.06,222.39 176.06,222.39 C176.06,222.39 175.06,222.89 175.06,222.89 C175.06,222.89 174.05,223.39 174.05,223.39 C174.05,223.39 173.05,223.89 173.05,223.89 C173.05,223.89 171.55,224.89 171.55,224.89 C171.55,224.89 170.55,224.89 170.55,224.89 C170.55,224.89 169.05,226.40 169.05,226.40 C169.05,226.40 168.04,226.40 168.04,226.40 C168.04,226.40 167.04,226.90 167.04,226.90 C167.04,226.90 166.04,227.40 166.04,227.40 C166.04,227.40 165.04,228.40 165.04,228.40 C165.04,228.40 164.04,228.40 164.04,228.40 C164.04,228.40 163.04,228.90 163.04,228.90 C163.04,228.90 162.03,229.40 162.03,229.40 C162.03,229.40 161.03,230.40 161.03,230.40 C161.03,230.40 160.03,230.90 160.03,230.90 C160.03,230.90 159.03,231.41 159.03,231.41 C159.03,231.41 158.03,231.41 158.03,231.41 C158.03,231.41 157.02,232.41 157.02,232.41 C157.02,232.41 156.02,232.91 156.02,232.91 C156.02,232.91 155.02,233.41 155.02,233.41 C155.02,233.41 153.52,234.41 153.52,234.41 C153.52,234.41 152.52,234.91 152.52,234.91 C152.52,234.91 151.01,235.91 151.01,235.91 C151.01,235.91 150.01,235.91 150.01,235.91 C150.01,235.91 149.01,236.91 149.01,236.91 C149.01,236.91 148.01,237.42 148.01,237.42 C148.01,237.42 147.01,237.42 147.01,237.42 C147.01,237.42 145.00,237.92 145.00,237.92 C145.00,237.92 144.00,238.92 144.00,238.92 C144.00,238.92 142.00,238.92 142.00,238.92 C142.00,238.92 140.00,239.42 140.00,239.42 C140.00,239.42 138.49,239.92 138.49,239.92 C138.49,239.92 137.49,240.42 137.49,240.42 C137.49,240.42 135.99,240.92 135.99,240.92 C135.99,240.92 134.49,241.42 134.49,241.42 C134.49,241.42 133.48,241.92 133.48,241.92 C133.48,241.92 131.98,243.43 131.98,243.43 C131.98,243.43 130.98,243.43 130.98,243.43 C130.98,243.43 129.48,244.93 129.48,244.93 C129.48,244.93 128.47,245.43 128.47,245.43 C128.47,245.43 127.47,245.93 127.47,245.93 C127.47,245.93 125.47,247.43 125.47,247.43 C125.47,247.43 123.47,248.94 123.47,248.94 C123.47,248.94 122.46,249.44 122.46,249.44 C122.46,249.44 121.46,249.94 121.46,249.94 C121.46,249.94 119.46,251.44 119.46,251.44 C119.46,251.44 118.46,251.44 118.46,251.44 C118.46,251.44 116.95,252.94 116.95,252.94 C116.95,252.94 115.95,253.44 115.95,253.44 C115.95,253.44 114.95,253.94 114.95,253.94 C114.95,253.94 113.95,253.94 113.95,253.94 C113.95,253.94 113.70,254.45 113.70,254.45" fill="none" stroke="rgb(0, 0, 0)" stroke-width="5.00" stroke-opacity="1.00" stroke-linejoin="round"/>
<path d="M192.84,210.37 C192.84,210.37 192.84,210.12 192.84,210.12 C192.84,210.12 191.59,209.37 191.59,209.37 C191.59,209.37 188.08,209.37 188.08,209.37 C188.08,209.37 187.33,210.12 187.33,210.12 C187.33,210.12 187.33,211.62 187.33,211.62 C187.33,211.62 189.08,211.87 189.08,211.87 C189.08,211.87 189.33,210.62 189.33,210.62 C189.33,210.62 190.58,210.87 190.58,210.87 C190.58,210.87 189.83,210.37 189.83,210.37" fill="none" stroke="rgb(0, 0, 0)" stroke-width="5.00" stroke-opacity="1.00" stroke-linejoin="round"/>
<path d="M183.32,213.37 C183.32,213.37 183.07,213.87 183.07,213.87 C183.07,213.87 182.07,213.87 182.07,213.87 C182.07,213.87 181.07,214.88 181.07,214.88 C181.07,214.88 179.06,216.38 179.06,216.38 C179.06,216.38 178.06,216.88 178.06,216.88 C178.06,216.88 176.06,218.38 176.06,218.38 C176.06,218.38 175.06,218.38 175.06,218.38 C175.06,218.38 174.05,219.38 174.05,219.38 C174.05,219.38 170.05,222.89 170.05,222.89 C170.05,222.89 168.55,223.89 168.55,223.89 C168.55,223.89 167.54,224.39 167.54,224.39 C167.54,224.39 166.54,224.89 166.54,224.89 C166.54,224.89 165.54,224.89 165.54,224.89 C165.54,224.89 164.04,225.39 164.04,225.39 C164.04,225.39 162.53,225.90 162.53,225.90 C162.53,225.90 160.53,226.40 160.53,226.40 C160.53,226.40 158.53,226.90 158.53,226.90 C158.53,226.90 157.02,227.40 157.02,227.40 C157.02,227.40 155.02,227.90 155.02,227.90 C155.02,227.90 154.02,228.40 154.02,228.40 C154.02,228.40 152.52,228.90 152.52,228.90 C152.52,228.90 149.26,232.16 149.26,232.16 C149.26,232.16 148.51,232.91 148.51,232.91 C148.51,232.91 147.51,233.41 147.51,233.41 C147.51,233.41 147.01,234.41 147.01,234.41 C147.01,234.41 146.01,234.91 146.01,234.91 C146.01,234.91 144.00,234.91 144.00,234.91 C144.00,234.91 141.75,235.41 141.75,235.41" fill="none" stroke="rgb(0, 0, 0)" stroke-width="5.00" stroke-opacity="1.00" stroke-linejoin="round"/>
<path d="M85.65,233.91 C85.65,233.91 85.90,233.91 85.90,233.91 C85.90,233.91 86.90,233.41 86.90,233.41 C86.90,233.41 87.90,232.41 87.90,232.41 C87.90,232.41 89.41,231.41 89.41,231.41 C89.41,231.41 90.41,230.90 90.41,230.90 C90.41,230.90 92.41,229.40 92.41,229.40 C92.41,229.40 93.41,228.90 93.41,228.90 C93.41,228.90 94.42,228.40 94.42,228.40 C94.42,228.40 95.42,227.40 95.42,227.40 C95.42,227.40 96.42,227.40 96.42,227.40 C96.42,227.40 97.42,226.90 97.42,226.90 C97.42,226.90 99.42,226.40 99.42,226.40 C99.42,226.40 100.93,225.90 100.93,225.90 C100.93,225.90 102.18,225.39 102.18,225.39" fill="none" stroke="rgb(0, 0, 0)" stroke-width="5.00" stroke-opacity="1.00" stroke-linejoin="round"/>
<path d="M105.69,224.39 C105.69,224.39 106.94,224.39 106.94,224.39 C106.94,224.39 107.69,225.14 107.69,225.14 C107.69,225.14 108.44,225.90 108.44,225.90 C108.44,225.90 109.44,226.90 109.44,226.90 C109.44,226.90 110.44,227.40 110.44,227.40 C110.44,227.40 115.95,226.90 115.95,226.90 C115.95,226.90 118.96,226.40 118.96,226.40 C118.96,226.40 124.47,224.89 124.47,224.89 C124.47,224.89 126.47,224.39 126.47,224.39 C126.47,224.39 128.47,223.39 128.47,223.39 C128.47,223.39 129.98,222.89 129.98,222.89 C129.98,222.89 131.98,221.89 131.98,221.89 C131.98,221.89 133.98,221.39 133.98,221.39 C133.98,221.39 134.99,220.89 134.99,220.89 C134.99,220.89 135.24,217.13 135.24,217.13 C135.24,217.13 134.74,215.13 134.74,215.13 C134.74,215.13 133.73,214.12 133.73,214.12 C133.73,214.12 133.73,212.62 133.73,212.62 C133.73,212.62 129.48,212.37 129.48,212.37 C129.48,212.37 128.47,212.87 128.47,212.87 C128.47,212.87 126.97,213.37 126.97,213.37 C126.97,213.37 124.47,214.38 124.47,214.38 C124.47,214.38 122.97,214.38 122.97,214.38 C122.97,214.38 121.96,215.38 121.96,215.38 C121.96,215.38 119.96,215.38 119.96,215.38 C119.96,215.38 118.96,215.88 118.96,215.88 C118.96,215.88 117.46,217.38 117.46,217.38 C117.46,217.38 116.45,217.38 116.45,217.38 C116.45,217.38 114.45,217.88 114.45,217.88 C114.45,217.88 112.45,218.38 112.45,218.38 C112.45,218.38 110.44,218.88 110.44,218.88 C110.44,218.88 109.44,219.88 109.44,219.88 C109.44,219.88 108.44,219.88 108.44,219.88 C108.44,219.88 106.44,220.39 106.44,220.39 C106.44,220.39 105.69,220.89 105.69,220.89" fill="none" stroke="rgb(0, 0, 0)" stroke-width="5.00" stroke-opacity="1.00" stroke-linejoin="round"/>
<path d="M84.15,234.41 C84.15,234.41 84.15,234.16 84.15,234.16 C84.15,234.16 82.90,232.91 82.90,232.91 C82.90,232.91 81.39,231.91 81.39,231.91 C81.39,231.91 80.39,231.91 80.39,231.91 C80.39,231.91 79.39,232.41 79.39,232.41 C79.39,232.41 78.39,232.91 78.39,232.91 C78.39,232.91 77.39,233.91 77.39,233.91 C77.39,233.91 76.38,234.41 76.38,234.41 C76.38,234.41 75.38,234.91 75.38,234.91 C75.38,234.91 74.38,235.41 74.38,235.41 C74.38,235.41 72.88,236.41 72.88,236.41 C72.88,236.41 70.87,236.91 70.87,236.91 C70.87,236.91 69.37,237.42 69.37,237.42 C69.37,237.42 68.87,238.42 68.87,238.42 C68.87,238.42 67.87,238.42 67.87,238.42 C67.87,238.42 66.87,238.92 66.87,238.92 C66.87,238.92 65.87,239.42 65.87,239.42 C65.87,239.42 64.36,240.92 64.36,240.92 C64.36,240.92 63.36,240.92 63.36,240.92 C63.36,240.92 61.86,242.42 61.86,242.42 C61.86,242.42 60.86,242.42 60.86,242.42 C60.86,242.42 59.60,243.68 59.60,243.68 C59.60,243.68 59.60,244.68 59.60,244.68 C59.60,244.68 61.11,246.18 61.11,246.18 C61.11,246.18 62.11,247.68 62.11,247.68 C62.11,247.68 62.11,248.69 62.11,248.69 C62.11,248.69 62.61,249.69 62.61,249.69 C62.61,249.69 69.87,249.94 69.87,249.94 C69.87,249.94 72.38,249.44 72.38,249.44 C72.38,249.44 74.88,247.93 74.88,247.93 C74.88,247.93 76.88,247.43 76.88,247.43 C76.88,247.43 78.89,246.93 78.89,246.93 C78.89,246.93 82.39,245.93 82.39,245.93 C82.39,245.93 83.40,244.93 83.40,244.93 C83.40,244.93 84.40,244.93 84.40,244.93 C84.40,244.93 84.90,243.93 84.90,243.93 C84.90,243.93 87.90,241.42 87.90,241.42 C88.98,241.55 88.37,238.90 87.90,238.42 C87.68,238.21 87.60,238.08 87.40,237.67 C87.40,237.67 86.15,236.66 86.15,236.66 C86.15,236.66 85.15,235.91 85.15,235.91" fill="none" stroke="rgb(0, 0, 0)" stroke-width="5.00" stroke-opacity="1.00" stroke-linejoin="round"/>
<path d="M80.64,212.87 C80.64,212.87 80.64,213.12 80.64,213.12 C80.64,213.12 80.14,217.13 80.14,217.13 C80.14,217.13 79.64,218.63 79.64,218.63 C79.64,218.63 79.14,220.14 79.14,220.14 C79.14,220.14 78.14,221.14 78.14,221.14 C78.14,221.14 76.63,223.14 76.63,223.14 C76.63,223.14 76.63,224.14 76.63,224.14 C76.63,224.14 75.63,224.64 75.63,224.64 C75.63,224.64 74.38,226.90 74.38,226.90 C74.38,226.90 73.63,227.65 73.63,227.65 C73.63,227.65 71.88,228.90 71.88,228.90 C71.88,228.90 70.87,229.90 70.87,229.90 C70.87,229.90 69.87,229.90 69.87,229.90 C69.87,229.90 68.87,230.90 68.87,230.90 C68.87,230.90 67.37,231.91 67.37,231.91 C67.37,231.91 66.37,231.91 66.37,231.91 C66.37,231.91 65.61,232.41 65.61,232.41" fill="none" stroke="rgb(0, 0, 0)" stroke-width="5.00" stroke-opacity="1.00" stroke-linejoin="round"/>
<path d="M100.18,211.37 C100.18,211.37 101.43,211.37 101.43,211.37 C101.43,211.37 103.43,211.87 103.43,211.87 C103.43,211.87 106.44,212.37 106.44,212.37 C106.69,212.62 107.29,213.39 109.44,213.37 C112.53,213.37 118.54,213.37 121.46,213.37 C121.46,213.37 122.97,212.87 122.97,212.87 C122.97,212.87 124.72,212.37 124.72,212.37" fill="none" stroke="rgb(0, 0, 0)" stroke-width="5.00" stroke-opacity="1.00" stroke-linejoin="round"/>
<path d="M37.57,216.88 C37.57,216.88 39.57,219.13 39.57,219.13 C39.57,219.13 42.32,222.39 42.32,222.39 C42.32,222.39 44.33,223.89 44.33,223.89 C44.33,223.89 45.58,224.64 45.58,224.64 C45.58,224.64 46.08,225.39 46.08,225.39" fill="none" stroke="rgb(0, 0, 0)" stroke-width="5.00" stroke-opacity="1.00" stroke-linejoin="round"/>
<path d="M46.08,206.86 C46.08,206.86 46.33,206.86 46.33,206.86 C46.33,206.86 47.33,207.36 47.33,207.36 C47.33,207.36 48.84,207.86 48.84,207.86 C48.84,207.86 50.34,209.37 50.34,209.37 C50.34,209.37 51.34,209.37 51.34,209.37 C51.34,209.37 52.34,210.37 52.34,210.37 C52.34,210.37 53.09,211.12 53.09,211.12 C53.09,211.12 53.84,211.87 53.84,211.87 C53.84,211.87 55.10,212.62 55.10,212.62 C55.10,212.62 56.10,214.12 56.10,214.12 C56.10,214.12 56.10,215.13 56.10,215.13 C56.10,215.13 58.10,216.63 58.10,216.63 C58.10,216.63 58.85,217.38 58.85,217.38 C58.85,217.38 61.86,220.39 61.86,220.39 C61.86,220.39 63.61,221.64 63.61,221.64 C63.61,221.64 65.11,223.64 65.11,223.64 C65.11,223.64 65.11,223.89 65.11,223.89" fill="none" stroke="rgb(0, 0, 0)" stroke-width="5.00" stroke-opacity="1.00" stroke-linejoin="round"/>
<path d="M60.61,196.34 C60.61,196.34 60.61,197.10 60.61,197.10 C60.61,197.10 61.11,198.10 61.11,198.10 C61.11,198.10 62.36,199.85 62.36,199.85 C62.36,199.85 63.11,200.60 63.11,200.60 C63.11,200.60 67.37,204.86 67.37,204.86 C67.37,204.86 67.62,204.86 67.62,204.86" fill="none" stroke="rgb(0, 0, 0)" stroke-width="5.00" stroke-opacity="1.00" stroke-linejoin="round"/>
<path d="M57.60,121.21 C57.60,121.21 57.35,121.21 57.35,121.21 C57.35,121.21 55.85,122.71 55.85,122.71 C55.85,122.71 54.09,123.97 54.09,123.97 C54.09,123.97 53.34,124.72 53.34,124.72 C53.34,124.72 51.09,127.97 51.09,127.97 C51.09,127.97 50.84,132.23 50.84,132.23 C50.84,132.23 51.84,132.73 51.84,132.73 C51.84,132.73 53.34,132.73 53.34,132.73 C47.81,132.33 42.06,132.05 41.07,132.23 C33.88,133.66 27.94,134.49 27.80,134.74 C27.80,134.74 25.29,135.24 25.29,135.24 C25.29,135.24 22.04,137.49 22.04,137.49 C22.04,137.49 22.04,140.00 22.04,140.00 C22.04,140.00 22.54,141.00 22.54,141.00 C22.54,141.00 23.04,142.00 23.04,142.00 C23.04,142.00 23.54,143.50 23.54,143.50 C23.54,143.50 24.54,144.00 24.54,144.00 C24.54,144.00 25.04,145.00 25.04,145.00 C25.04,145.00 25.04,146.01 25.04,146.01 C25.04,146.01 26.05,147.01 26.05,147.01 C26.05,147.01 26.80,147.76 26.80,147.76 C26.80,147.76 27.05,150.01 27.05,150.01 C27.05,150.01 27.55,152.02 27.55,152.02 C27.55,152.02 29.05,153.52 29.05,153.52 C29.05,153.52 29.80,154.27 29.80,154.27 C29.80,154.27 30.80,154.77 30.80,154.77 C30.80,154.77 31.81,155.27 31.81,155.27 C31.81,155.27 35.31,155.77 35.31,155.77 C35.31,155.77 37.82,156.27 37.82,156.27 C38.24,155.42 37.44,155.14 34.81,155.27 C34.47,155.29 34.30,155.29 34.31,155.27 C34.31,155.27 33.31,155.77 33.31,155.77 C33.31,155.77 32.56,156.52 32.56,156.52 C32.56,156.52 32.56,157.53 32.56,157.53 C32.56,157.53 32.06,159.03 32.06,159.03 C32.06,159.03 33.81,160.78 33.81,160.78 C33.81,160.78 34.81,161.28 34.81,161.28 C34.81,161.28 35.81,161.78 35.81,161.78 C35.81,161.78 36.81,161.78 36.81,161.78 C38.04,162.22 40.12,162.82 41.82,162.78 C42.44,162.77 48.84,162.78 49.84,162.78 C49.84,162.78 50.09,164.04 50.09,164.04 C50.09,164.04 51.34,165.29 51.34,165.29 C51.34,165.29 52.09,166.04 52.09,166.04 C52.09,166.04 54.35,166.79 54.35,166.79 C58.86,169.00 66.92,169.35 72.13,169.30 C76.22,169.30 83.49,169.33 84.65,169.05 C86.53,168.42 89.61,167.22 89.91,167.29 C89.91,167.29 90.66,166.54 90.66,166.54 C90.66,166.54 91.16,165.54 91.16,165.54 C91.16,165.54 90.41,164.29 90.41,164.29 C90.41,164.29 89.66,165.04 89.66,165.04 C89.66,165.04 90.41,165.79 90.41,165.79 C90.41,165.79 91.41,166.29 91.41,166.29 C91.41,166.29 92.41,166.29 92.41,166.29 C92.41,166.29 94.42,167.29 94.42,167.29 C94.62,167.28 100.31,168.80 103.93,168.80 C107.07,169.31 108.01,169.28 114.83,169.28 C117.35,169.28 121.20,168.72 121.96,168.80 C121.96,168.80 122.97,168.29 122.97,168.29 C122.97,168.29 123.22,166.54 123.22,166.54 C125.20,166.09 126.13,166.37 127.97,166.79 C130.51,167.36 134.60,167.55 141.50,167.79 C146.74,167.98 149.85,164.41 150.26,164.04 C150.26,164.04 150.26,159.53 150.26,159.53 C150.26,159.53 149.51,158.78 149.51,158.78 C145.62,156.61 140.72,154.75 140.25,154.52 C138.11,153.49 134.22,152.86 133.98,152.77 C131.88,151.71 130.98,151.77 127.47,151.77 C127.47,151.77 137.49,151.77 137.49,151.77 C137.49,151.77 138.49,151.26 138.49,151.26 C138.49,151.26 140.25,149.01 140.25,149.01 C140.25,149.01 140.25,143.00 140.25,143.00 C140.25,143.00 139.74,142.00 139.74,142.00 C139.74,142.00 139.24,141.00 139.24,141.00 C139.24,141.00 138.24,140.50 138.24,140.50 C138.24,140.50 137.49,139.74 137.49,139.74 C137.49,139.74 136.49,139.24 136.49,139.24 C136.49,139.24 133.98,137.74 133.98,137.74 C133.98,137.74 123.97,137.74 123.97,137.74 C123.97,137.74 122.97,138.74 122.97,138.74 C122.97,138.74 121.96,139.24 121.96,139.24 C121.96,139.24 122.71,138.49 122.71,138.49 C122.71,138.49 123.22,137.49 123.22,137.49 C123.22,137.49 123.22,135.49 123.22,135.49 C123.22,135.49 122.46,134.74 122.46,134.74 C122.46,134.74 121.46,134.74 121.46,134.74 C121.46,134.74 120.46,133.73 120.46,133.73 C120.46,133.73 115.95,133.23 115.95,133.23 C115.95,133.23 89.41,132.73 89.41,132.73 C89.41,132.73 90.91,133.23 90.91,133.23 C90.91,133.23 91.91,132.73 91.91,132.73 C91.91,132.73 92.66,131.48 92.66,131.48 C92.66,131.48 92.66,128.98 92.66,128.98 C92.26,128.58 90.56,127.79 90.41,127.72 C89.00,127.19 86.55,127.24 81.39,127.22 C79.32,127.20 79.14,127.47 78.39,128.22 C78.39,128.22 79.39,128.22 79.39,128.22 C79.39,128.22 76.38,127.72 76.38,127.72 C76.38,127.72 72.38,127.22 72.38,127.22 C72.38,127.22 61.86,126.72 61.86,126.72 C61.86,126.72 61.11,127.47 61.11,127.47 C61.11,127.47 60.36,128.22 60.36,128.22 C60.36,128.22 59.60,128.98 59.60,128.98 C59.60,128.98 59.10,129.98 59.10,129.98 C59.10,129.98 59.10,130.98 59.10,130.98 C59.10,130.98 58.60,131.23 58.60,131.23" fill="none" stroke="rgb(0, 0, 0)" stroke-width="5.00" stroke-opacity="1.00" stroke-linejoin="round"/>
<path d="M-2.00,284.50 C-2.00,284.50 -1.25,284.50 -1.25,284.50 C-1.25,284.50 -0.25,285.50 -0.25,285.50 C-0.25,285.50 2.00,287.25 2.00,287.25 C2.00,287.25 3.01,288.76 3.01,288.76 C3.01,288.76 10.77,297.02 10.77,297.02 C10.77,297.02 13.27,299.02 13.27,299.02 C13.27,299.02 14.02,299.77 14.02,299.77 C14.02,299.77 19.78,305.03 19.78,305.03 C19.78,305.03 21.04,305.79 21.04,305.79 C21.04,305.79 21.79,306.54 21.79,306.54 C21.79,306.54 23.79,308.54 23.79,308.54 C23.79,308.54 25.29,309.54 25.29,309.54 C25.29,309.54 29.30,312.55 29.30,312.55 C29.30,312.55 30.30,313.05 30.30,313.05 C30.30,313.05 31.30,313.05 31.30,313.05 C31.30,313.05 34.31,313.55 34.31,313.55 C34.31,313.55 33.56,313.55 33.56,313.55" fill="none" stroke="rgb(0, 0, 0)" stroke-width="5.00" stroke-opacity="1.00" stroke-linejoin="round"/>
<path d="M7.01,275.98 C7.01,275.98 8.77,275.98 8.77,275.98 C8.77,275.98 9.77,276.48 9.77,276.48 C9.77,276.48 10.77,277.49 10.77,277.49 C10.77,277.49 12.77,278.49 12.77,278.49 C12.77,278.49 13.77,278.49 13.77,278.49 C13.77,278.49 14.78,279.49 14.78,279.49 C14.78,279.49 15.78,279.49 15.78,279.49 C15.78,279.49 17.28,280.99 17.28,280.99 C17.28,280.99 19.28,282.49 19.28,282.49 C19.28,282.49 20.04,283.25 20.04,283.25 C20.04,283.25 21.04,283.75 21.04,283.75 C21.04,283.75 21.79,284.50 21.79,284.50 C21.79,284.50 22.54,285.75 22.54,285.75 C22.54,285.75 23.04,286.75 23.04,286.75 C23.04,286.75 23.54,287.75 23.54,287.75 C23.54,287.75 25.04,289.76 25.04,289.76 C25.04,289.76 27.55,293.26 27.55,293.26 C27.55,293.26 28.30,294.01 28.30,294.01 C28.30,294.01 29.05,294.77 29.05,294.77 C29.05,294.77 29.55,295.77 29.55,295.77 C29.55,295.77 30.55,297.27 30.55,297.27 C30.55,297.27 31.05,298.27 31.05,298.27 C31.05,298.27 31.05,300.28 31.05,300.28 C31.05,300.28 31.56,301.03 31.56,301.03" fill="none" stroke="rgb(0, 0, 0)" stroke-width="5.00" stroke-opacity="1.00" stroke-linejoin="round"/>
<path d="M13.02,276.98 C13.02,276.98 13.02,278.24 13.02,278.24 C13.02,278.24 13.52,280.24 13.52,280.24 C13.52,280.24 14.02,286.75 14.02,286.75 C14.02,286.75 14.53,295.02 14.53,295.02" fill="none" stroke="rgb(0, 0, 0)" stroke-width="5.00" stroke-opacity="1.00" stroke-linejoin="round"/>
<path d="M25.54,284.50 C25.54,284.50 25.54,289.76 25.54,289.76 C25.54,289.76 26.05,301.78 26.05,301.78 C26.05,301.78 26.55,304.28 26.55,304.28 C26.55,304.28 27.05,304.53 27.05,304.53" fill="none" stroke="rgb(0, 0, 0)" stroke-width="5.00" stroke-opacity="1.00" stroke-linejoin="round"/>
<path d="M-1.00,216.88 C-1.00,216.88 -0.75,215.63 -0.75,215.63 C-0.75,215.63 0.75,214.38 0.75,214.38 C0.75,214.38 1.50,213.62 1.50,213.62 C1.50,213.62 2.25,212.87 2.25,212.87 C2.25,212.87 3.26,212.37 3.26,212.37 C3.26,212.37 4.01,211.62 4.01,211.62 C4.01,211.62 5.01,211.12 5.01,211.12 C5.01,211.12 6.26,209.37 6.26,209.37 C6.26,209.37 11.27,205.36 11.27,205.36 C11.27,205.36 12.77,204.36 12.77,204.36 C12.77,204.36 15.78,201.85 15.78,201.85 C15.78,201.85 17.28,200.85 17.28,200.85 C17.28,200.85 18.28,200.35 18.28,200.35 C18.28,200.35 19.28,199.85 19.28,199.85 C19.28,199.85 20.79,198.85 20.79,198.85 C20.79,198.85 21.79,198.35 21.79,198.35 C21.79,198.35 23.79,198.35 23.79,198.35 C23.79,198.35 26.80,197.85 26.80,197.85 C26.80,197.85 28.05,197.35 28.05,197.35" fill="none" stroke="rgb(0, 0, 0)" stroke-width="5.00" stroke-opacity="1.00" stroke-linejoin="round"/>
<path d="M155.27,171.80 C155.27,171.80 155.52,171.30 155.52,171.30 C155.52,171.30 173.55,171.30 173.55,171.30 C173.55,171.30 174.56,171.80 174.56,171.80 C174.56,171.80 175.56,172.30 175.56,172.30 C175.56,172.30 176.56,172.80 176.56,172.80 C176.56,172.80 178.06,173.30 178.06,173.30 C178.06,173.30 179.56,173.80 179.56,173.80 C179.56,173.80 180.57,174.31 180.57,174.31 C180.57,174.31 182.07,174.81 182.07,174.81 C182.07,174.81 183.07,175.31 183.07,175.31 C183.07,175.31 184.57,175.81 184.57,175.81 C184.57,175.81 185.57,177.31 185.57,177.31 C185.57,177.31 187.58,178.81 187.58,178.81 C187.58,178.81 189.08,179.81 189.08,179.81 C189.08,179.81 191.08,181.32 191.08,181.32 C191.08,181.32 192.59,182.32 192.59,182.32 C192.59,182.32 194.09,183.32 194.09,183.32 C194.09,183.32 195.09,183.82 195.09,183.82 C195.09,183.82 196.09,184.32 196.09,184.32 C196.09,184.32 197.10,184.32 197.10,184.32 C197.10,184.32 197.60,185.32 197.60,185.32 C197.60,185.32 198.60,185.83 198.60,185.83 C198.60,185.83 199.60,186.33 199.60,186.33 C199.60,186.33 200.60,186.33 200.60,186.33 C200.60,186.33 201.10,187.33 201.10,187.33 C201.10,187.33 202.10,187.83 202.10,187.83 C202.10,187.83 203.36,188.58 203.36,188.58 C203.36,188.58 204.11,189.83 204.11,189.83 C204.11,189.83 205.61,191.08 205.61,191.08 C205.61,191.08 207.61,193.09 207.61,193.09 C207.61,193.09 210.12,195.84 210.12,195.84 C210.12,195.84 217.63,202.86 217.63,202.86 C217.63,202.86 219.88,204.61 219.88,204.61 C219.88,204.61 220.64,205.36 220.64,205.36 C220.64,205.36 222.89,208.11 222.89,208.11 C222.89,208.11 223.64,208.87 223.64,208.87 C223.64,208.87 224.39,210.12 224.39,210.12 C224.39,210.12 224.89,211.12 224.89,211.12 C224.89,211.12 224.89,214.63 224.89,214.63 C224.89,214.63 225.39,215.63 225.39,215.63 C225.39,215.63 225.90,218.13 225.90,218.13 C225.90,218.13 226.40,219.63 226.40,219.63 C226.40,219.63 226.90,220.64 226.90,220.64 C226.90,220.64 227.40,221.64 227.40,221.64 C227.40,221.64 227.90,223.14 227.90,223.14 C227.90,223.14 228.40,225.14 228.40,225.14 C228.40,225.14 228.90,235.41 228.90,235.41" fill="none" stroke="rgb(0, 0, 0)" stroke-width="5.00" stroke-opacity="1.00" stroke-linejoin="round"/>
<path d="M28.55,326.07 C28.55,326.07 28.55,326.82 28.55,326.82 C28.55,326.82 29.05,327.82 29.05,327.82 C29.05,327.82 30.05,328.83 30.05,328.83 C30.05,328.83 33.31,332.58 33.31,332.58 C33.31,332.58 34.81,333.58 34.81,333.58 C34.81,333.58 35.56,334.34 35.56,334.34 C35.56,334.34 37.32,336.09 37.32,336.09 C37.32,336.09 40.32,337.59 40.32,337.59 C40.32,337.59 43.33,339.09 43.33,339.09 C43.33,339.09 44.83,339.09 44.83,339.09 C44.83,339.09 45.83,339.59 45.83,339.59 C45.83,339.59 46.83,340.10 46.83,340.10 C46.83,340.10 47.33,341.10 47.33,341.10 C47.33,341.10 51.09,344.35 51.09,344.35 C51.09,344.35 51.84,345.10 51.84,345.10 C51.84,345.10 52.84,345.60 52.84,345.60 C52.84,345.60 53.84,346.11 53.84,346.11 C53.84,346.11 57.35,346.61 57.35,346.61 C57.35,346.61 59.35,346.11 59.35,346.11 C59.35,346.11 62.86,344.60 62.86,344.60 C62.86,344.60 64.36,344.60 64.36,344.60 C64.36,344.60 65.87,344.10 65.87,344.10 C65.87,344.10 66.87,343.60 66.87,343.60 C66.87,343.60 67.87,342.60 67.87,342.60 C67.87,342.60 69.37,342.60 69.37,342.60 C69.37,342.60 71.37,342.10 71.37,342.10 C71.37,342.10 75.88,340.60 75.88,340.60 C75.88,340.60 79.39,339.59 79.39,339.59 C79.39,339.59 84.40,337.59 84.40,337.59 C84.40,337.59 90.41,335.59 90.41,335.59 C90.41,335.59 91.41,335.09 91.41,335.09 C91.41,335.09 92.91,334.59 92.91,334.59 C92.91,334.59 93.91,334.08 93.91,334.08 C93.91,334.08 95.42,333.58 95.42,333.58 C95.42,333.58 97.42,332.58 97.42,332.58 C97.42,332.58 99.92,331.08 99.92,331.08 C99.92,331.08 100.93,330.58 100.93,330.58 C100.93,330.58 101.93,330.08 101.93,330.08 C101.93,330.08 102.93,330.08 102.93,330.08 C102.93,330.08 104.93,329.58 104.93,329.58 C104.93,329.58 108.94,328.07 108.94,328.07 C108.94,328.07 110.94,328.07 110.94,328.07 C110.94,328.07 114.45,327.57 114.45,327.57 C114.45,327.57 115.45,327.07 115.45,327.07 C115.45,327.07 117.96,326.57 117.96,326.57 C117.96,326.57 124.97,324.07 124.97,324.07 C128.33,322.20 136.45,319.09 140.00,318.06 C143.24,317.07 145.00,316.80 146.51,316.55 C146.51,316.55 150.01,315.55 150.01,315.55 C150.01,315.55 157.02,314.05 157.02,314.05 C157.02,314.05 158.53,313.55 158.53,313.55 C158.53,313.55 160.53,313.05 160.53,313.05 C160.53,313.05 162.03,312.55 162.03,312.55 C162.03,312.55 163.54,312.05 163.54,312.05 C163.54,312.05 164.54,311.04 164.54,311.04 C164.54,311.04 165.54,310.54 165.54,310.54 C165.54,310.54 166.54,310.54 166.54,310.54 C166.54,310.54 167.54,310.04 167.54,310.04 C167.54,310.04 168.55,309.04 168.55,309.04 C168.55,309.04 169.55,308.54 169.55,308.54 C169.55,308.54 170.55,308.04 170.55,308.04 C170.55,308.04 172.05,307.04 172.05,307.04 C172.05,307.04 173.05,306.54 173.05,306.54 C173.05,306.54 174.05,306.04 174.05,306.04 C174.05,306.04 175.06,305.53 175.06,305.53 C175.06,305.53 177.06,304.53 177.06,304.53 C177.06,304.53 178.06,304.03 178.06,304.03 C178.06,304.03 179.06,303.53 179.06,303.53 C179.06,303.53 180.07,302.53 180.07,302.53 C180.07,302.53 183.07,300.53 183.07,300.53 C183.07,300.53 184.07,300.03 184.07,300.03 C184.07,300.03 185.07,299.52 185.07,299.52 C185.07,299.52 186.58,298.52 186.58,298.52 C186.58,298.52 187.58,298.02 187.58,298.02 C187.58,298.02 189.08,297.02 189.08,297.02 C189.08,297.02 190.58,296.02 190.58,296.02 C190.58,296.02 191.59,295.52 191.59,295.52 C191.59,295.52 192.59,295.52 192.59,295.52 C192.59,295.52 193.59,294.52 193.59,294.52 C193.59,294.52 194.59,294.01 194.59,294.01 C194.59,294.01 195.59,294.01 195.59,294.01 C195.59,294.01 197.10,293.51 197.10,293.51 C197.10,293.51 200.10,292.01 200.10,292.01 C200.10,292.01 202.10,290.51 202.10,290.51 C202.10,290.51 203.11,290.01 203.11,290.01 C203.11,290.01 204.11,289.51 204.11,289.51 C204.11,289.51 205.11,289.01 205.11,289.01 C205.11,289.01 207.11,287.50 207.11,287.50 C207.11,287.50 208.62,286.50 208.62,286.50 C208.62,286.50 214.12,283.00 214.12,283.00 C214.12,283.00 215.63,281.99 215.63,281.99 C215.63,281.99 216.63,281.49 216.63,281.49 C216.63,281.49 220.14,279.99 220.14,279.99 C220.14,279.99 221.14,279.99 221.14,279.99 C221.14,279.99 222.64,279.49 222.64,279.49 C222.64,279.49 224.14,278.74 224.14,278.74 C224.14,278.74 225.64,277.99 225.64,277.99 C225.64,277.99 227.15,277.49 227.15,277.49 C227.15,277.49 228.15,276.98 228.15,276.98 C228.15,276.98 229.65,275.48 229.65,275.48 C229.65,275.48 230.65,274.98 230.65,274.98 C230.65,274.98 231.66,274.48 231.66,274.48 C231.66,274.48 232.41,273.73 232.41,273.73 C232.41,273.73 234.16,272.48 234.16,272.48 C234.16,272.48 235.66,271.48 235.66,271.48 C235.66,271.48 239.17,268.97 239.17,268.97 C239.17,268.97 240.42,268.22 240.42,268.22 C240.42,268.22 243.18,265.46 243.18,265.46 C243.18,265.46 244.93,264.21 244.93,264.21 C244.93,264.21 246.18,262.46 246.18,262.46 C246.18,262.46 246.93,261.21 246.93,261.21 C247.06,261.08 247.95,260.31 247.93,258.20 C247.93,257.89 247.93,257.55 247.93,257.20 C247.93,257.20 247.43,250.19 247.43,250.19 C247.43,250.19 246.93,248.18 246.93,248.18 C246.93,248.18 246.43,247.18 246.43,247.18 C246.43,247.18 245.18,245.93 245.18,245.93 C245.18,245.93 243.68,244.93 243.68,244.93 C243.68,244.93 242.67,244.43 242.67,244.43 C242.67,244.43 241.67,243.93 241.67,243.93 C241.67,243.93 240.17,242.93 240.17,242.93 C240.17,242.93 239.17,242.42 239.17,242.42 C239.17,242.42 238.17,242.42 238.17,242.42 C238.17,242.42 237.17,241.92 237.17,241.92 C237.17,241.92 234.66,241.42 234.66,241.42 C234.66,241.42 231.15,240.92 231.15,240.92 C231.15,240.92 226.15,240.42 226.15,240.42 C226.15,240.42 216.63,239.92 216.63,239.92 C216.63,239.92 215.63,240.42 215.63,240.42 C215.63,240.42 213.12,240.92 213.12,240.92 C213.12,240.92 210.62,241.42 210.62,241.42 C210.62,241.42 208.62,241.92 208.62,241.92 C208.62,241.92 206.11,242.42 206.11,242.42 C206.11,242.42 205.11,243.43 205.11,243.43 C205.11,243.43 204.11,243.43 204.11,243.43 C204.11,243.43 202.60,243.93 202.60,243.93 C202.60,243.93 201.10,244.43 201.10,244.43 C201.10,244.43 200.10,244.93 200.10,244.93 C200.10,244.93 199.10,245.43 199.10,245.43 C199.10,245.43 195.59,247.43 195.59,247.43 C195.59,247.43 194.59,247.93 194.59,247.93 C194.59,247.93 193.59,247.93 193.59,247.93 C193.59,247.93 192.09,248.43 192.09,248.43 C192.09,248.43 191.08,248.94 191.08,248.94 C191.08,248.94 189.58,249.44 189.58,249.44 C189.58,249.44 188.58,249.94 188.58,249.94 C188.58,249.94 186.08,251.44 186.08,251.44 C186.08,251.44 185.07,251.44 185.07,251.44 C185.07,251.44 182.07,253.44 182.07,253.44 C182.07,253.44 181.07,253.44 181.07,253.44 C181.07,253.44 179.56,253.94 179.56,253.94 C179.56,253.94 178.56,254.45 178.56,254.45 C178.56,254.45 177.56,254.95 177.56,254.95 C177.56,254.95 176.06,255.45 176.06,255.45 C176.06,255.45 174.56,255.95 174.56,255.95 C174.56,255.95 173.05,256.45 173.05,256.45 C173.05,256.45 172.05,257.45 172.05,257.45 C172.05,257.45 169.05,257.95 169.05,257.95 C169.05,257.95 167.54,258.45 167.54,258.45 C167.54,258.45 166.04,258.95 166.04,258.95 C166.04,258.95 165.04,259.45 165.04,259.45 C165.04,259.45 161.03,260.46 161.03,260.46 C161.03,260.46 158.03,260.96 158.03,260.96 C158.03,260.96 157.02,261.46 157.02,261.46 C157.02,261.46 154.52,261.96 154.52,261.96 C154.52,261.96 153.02,262.46 153.02,262.46 C153.02,262.46 151.01,262.96 151.01,262.96 C151.01,262.96 150.01,263.96 150.01,263.96 C150.01,263.96 146.51,264.46 146.51,264.46 C146.51,264.46 144.50,264.96 144.50,264.96 C144.50,264.96 143.00,265.46 143.00,265.46 C143.00,265.46 141.00,265.97 141.00,265.97 C141.00,265.97 138.99,266.47 138.99,266.47 C138.99,266.47 136.99,266.97 136.99,266.97 C136.99,266.97 133.48,267.97 133.48,267.97 C133.48,267.97 131.48,268.47 131.48,268.47 C131.48,268.47 129.48,268.97 129.48,268.97 C129.48,268.97 128.47,269.97 128.47,269.97 C128.47,269.97 126.97,269.97 126.97,269.97 C126.97,269.97 125.97,270.97 125.97,270.97 C125.97,270.97 124.97,270.97 124.97,270.97 C124.97,270.97 124.47,271.98 124.47,271.98 C124.47,271.98 123.47,272.48 123.47,272.48 C123.47,272.48 122.46,272.98 122.46,272.98 C122.46,272.98 121.46,273.48 121.46,273.48 C121.46,273.48 120.46,273.98 120.46,273.98 C120.46,273.98 119.46,274.48 119.46,274.48 C119.46,274.48 118.46,274.48 118.46,274.48 C118.46,274.48 116.95,274.98 116.95,274.98 C116.95,274.98 115.95,275.98 115.95,275.98 C115.95,275.98 114.95,275.98 114.95,275.98 C114.95,275.98 113.45,276.48 113.45,276.48 C113.45,276.48 111.45,276.98 111.45,276.98 C111.45,276.98 110.44,277.49 110.44,277.49 C110.44,277.49 108.94,277.99 108.94,277.99 C108.94,277.99 107.44,278.49 107.44,278.49 C107.44,278.49 105.94,278.99 105.94,278.99 C105.94,278.99 104.93,279.49 104.93,279.49 C104.93,279.49 101.43,280.49 101.43,280.49 C101.43,280.49 96.92,282.49 96.92,282.49 C96.92,282.49 95.92,282.49 95.92,282.49 C95.92,282.49 93.91,283.00 93.91,283.00 C93.91,283.00 92.41,283.50 92.41,283.50 C92.41,283.50 91.41,284.00 91.41,284.00 C91.41,284.00 89.91,284.50 89.91,284.50 C89.91,284.50 88.40,285.00 88.40,285.00 C88.40,285.00 86.40,285.50 86.40,285.50 C86.40,285.50 84.40,286.50 84.40,286.50 C84.40,286.50 82.90,286.50 82.90,286.50 C82.90,286.50 78.89,287.50 78.89,287.50 C78.89,287.50 77.89,288.00 77.89,288.00 C77.89,288.00 75.88,288.51 75.88,288.51 C75.88,288.51 73.88,289.01 73.88,289.01 C73.88,289.01 72.38,289.51 72.38,289.51 C72.38,289.51 71.37,290.51 71.37,290.51 C71.37,290.51 70.37,291.01 70.37,291.01 C70.37,291.01 69.37,291.01 69.37,291.01 C69.37,291.01 68.37,291.51 68.37,291.51 C68.37,291.51 67.37,292.01 67.37,292.01 C67.37,292.01 64.36,293.01 64.36,293.01 C64.36,293.01 63.36,293.51 63.36,293.51 C63.36,293.51 62.86,294.52 62.86,294.52 C62.86,294.52 61.86,295.02 61.86,295.02 C61.86,295.02 60.86,295.02 60.86,295.02 C60.86,295.02 59.35,296.52 59.35,296.52 C59.35,296.52 58.35,297.02 58.35,297.02 C58.35,297.02 57.35,297.52 57.35,297.52 C57.35,297.52 56.60,298.27 56.60,298.27 C56.60,298.27 55.35,299.02 55.35,299.02 C55.35,299.02 52.34,301.03 52.34,301.03 C52.34,301.03 50.84,301.78 50.84,301.78 C50.63,302.35 46.64,305.29 45.83,305.53 C45.69,305.57 45.53,305.57 45.33,305.53 C45.33,305.53 44.83,306.54 44.83,306.54 C44.83,306.54 38.82,310.04 38.82,310.04 C38.82,310.04 35.81,312.55 35.81,312.55 C35.81,312.55 33.06,314.30 33.06,314.30 C33.06,314.30 33.06,315.30 33.06,315.30 C33.06,315.30 32.56,316.30 32.56,316.30 C32.56,316.30 32.06,322.31 32.06,322.31 C32.06,322.31 31.30,323.07 31.30,323.07 C31.30,323.07 31.05,323.07 31.05,323.07" fill="none" stroke="rgb(0, 0, 0)" stroke-width="5.00" stroke-opacity="1.00" stroke-linejoin="round"/>
<path d="M25.04,326.57 C25.04,326.57 25.04,327.32 25.04,327.32 C25.04,327.32 23.04,329.33 23.04,329.33 C23.04,329.33 22.54,330.33 22.54,330.33 C22.54,330.33 22.04,331.33 22.04,331.33 C22.04,331.33 21.29,332.08 21.29,332.08 C21.29,332.08 20.04,333.33 20.04,333.33 C20.04,333.33 19.28,334.59 19.28,334.59 C19.28,334.59 16.78,336.34 16.78,336.34 C16.78,336.34 15.53,337.84 15.53,337.84 C15.53,337.84 15.53,339.84 15.53,339.84 C15.53,339.84 15.03,340.85 15.03,340.85 C15.03,340.85 14.53,342.35 14.53,342.35 C14.53,342.35 14.02,343.85 14.02,343.85 C14.02,343.85 13.52,345.35 13.52,345.35 C13.52,345.35 13.02,347.36 13.02,347.36 C13.02,347.36 13.02,354.87 13.02,354.87 C13.02,354.87 13.52,384.42 13.52,384.42 C13.52,384.42 12.52,388.93 12.52,388.93 C12.52,388.93 13.52,387.93 13.52,387.93 C13.52,387.93 13.52,387.68 13.52,387.68" fill="none" stroke="rgb(0, 0, 0)" stroke-width="5.00" stroke-opacity="1.00" stroke-linejoin="round"/>
<path d="M54.09,360.63 C54.09,360.63 56.85,360.63 56.85,360.63 C56.85,360.63 57.85,361.63 57.85,361.63 C57.85,361.63 59.35,362.63 59.35,362.63 C59.35,362.63 60.86,363.64 60.86,363.64 C60.86,363.64 61.86,364.14 61.86,364.14 C61.86,364.14 62.86,364.64 62.86,364.64 C62.86,364.64 63.61,365.39 63.61,365.39 C63.61,365.39 65.36,366.14 65.36,366.14 C65.36,366.14 66.37,366.64 66.37,366.64 C66.37,366.64 69.87,368.65 69.87,368.65 C69.87,368.65 79.39,374.66 79.39,374.66 C80.11,374.53 83.92,377.31 85.40,377.66 C85.89,377.78 86.53,378.26 86.90,378.66 C86.90,378.66 87.90,378.91 87.90,378.91 C87.90,378.91 89.91,380.17 89.91,380.17 C89.91,380.17 91.41,380.67 91.41,380.67 C91.41,380.67 92.41,381.67 92.41,381.67 C92.41,381.67 93.41,382.17 93.41,382.17 C93.41,382.17 95.67,382.67 95.67,382.67" fill="none" stroke="rgb(0, 0, 0)" stroke-width="5.00" stroke-opacity="1.00" stroke-linejoin="round"/>
<path d="M251.44,260.96 C251.44,260.96 253.19,260.96 253.19,260.96 C253.19,260.96 255.70,261.46 255.70,261.46 C255.70,261.46 259.20,261.96 259.20,261.96 C259.20,261.96 261.21,262.46 261.21,262.46 C261.21,262.46 262.96,262.96 262.96,262.96" fill="none" stroke="rgb(0, 0, 0)" stroke-width="5.00" stroke-opacity="1.00" stroke-linejoin="round"/>
<path d="M115.56,250.37 C116.70,250.41 117.99,248.90 118.15,248.89 C118.64,248.85 120.74,248.15 121.11,248.15 C122.41,247.41 124.25,246.56 124.81,246.67 C124.81,246.67 126.30,245.19 126.30,245.19 C128.93,243.82 130.83,243.70 131.11,243.33 C131.48,242.96 132.13,242.23 132.22,242.22 C132.71,242.19 133.24,242.40 133.70,242.22 C134.03,242.10 134.11,241.57 134.44,241.48 C135.16,241.30 136.77,241.47 137.04,241.11 C137.31,240.74 139.15,240.70 140.00,239.63 C140.28,239.27 143.11,238.63 143.33,238.52 C143.65,238.36 144.27,237.67 144.81,237.78 C144.81,237.78 145.56,236.30 145.56,236.30 C146.32,236.37 148.52,235.19 149.26,234.81 C149.39,234.74 149.64,234.74 150.00,234.81 C150.00,234.81 151.48,233.33 151.48,233.33 C152.04,233.44 152.63,232.70 152.96,232.59 C153.44,232.45 153.98,232.75 154.44,232.59 C154.78,232.48 154.86,231.97 155.19,231.85 C155.65,231.68 156.73,231.85 157.04,231.48 C157.17,231.32 157.54,230.95 158.15,230.37 C159.69,229.49 160.20,228.90 160.37,228.89 C160.86,228.84 161.95,228.88 162.22,228.52 C163.33,227.41 164.35,227.57 164.81,227.41 C165.15,227.29 166.71,226.04 167.04,225.93 C167.50,225.77 168.61,225.92 168.89,225.56 C169.26,225.19 169.91,224.45 170.00,224.44 C171.67,224.33 173.70,222.96 175.93,222.22 C175.93,222.22 176.67,220.74 176.67,220.74 C177.80,220.72 178.84,220.78 178.89,220.74 C179.85,220.00 182.22,219.26 182.59,219.26 C182.90,219.09 185.46,217.87 185.56,217.78 C187.04,217.78 189.26,217.04 190.00,216.30 C190.47,216.14 191.01,216.44 191.48,216.30 C191.81,216.19 192.40,215.45 192.96,215.56 C192.96,215.56 195.19,213.33 195.19,213.33 C195.19,213.33 197.04,212.22 197.04,212.22 C197.04,212.22 199.26,209.26 199.26,209.26" fill="none" stroke="rgb(255, 255, 255)" stroke-width="14.90" stroke-opacity="1.00" stroke-linejoin="round"/>
<path d="M194.81,208.15 C194.81,208.15 192.96,207.41 192.96,207.41 C192.96,207.41 190.74,205.19 190.74,205.19 C190.74,205.19 188.52,204.44 188.52,204.44 C188.52,204.44 187.78,202.96 187.78,202.96 C187.01,203.03 182.66,200.94 181.85,201.48 C181.56,201.68 180.91,202.33 180.37,202.22 C180.37,202.22 178.89,203.70 178.89,203.70 C178.54,203.65 175.87,205.21 175.56,205.56 C174.96,206.21 173.27,207.94 173.33,208.52 C173.33,208.52 169.63,212.22 169.63,212.22 C169.63,212.22 169.26,213.33 169.26,213.33 C169.26,213.33 166.30,215.56 166.30,215.56 C163.66,216.92 161.76,217.04 161.48,217.41 C160.37,218.52 158.78,218.63 158.15,219.26 C157.68,219.43 156.02,219.38 155.19,220.00 C155.05,220.10 154.24,220.96 153.70,221.48 C153.14,221.37 150.09,222.87 150.00,222.96 C149.53,223.12 148.99,222.82 148.52,222.96 C148.19,223.07 147.60,223.81 147.04,223.70 C147.04,223.70 144.81,225.93 144.81,225.93 C143.96,226.16 143.15,226.60 142.96,227.04 C142.87,227.25 143.08,228.35 142.96,228.52 C142.77,228.81 142.11,229.57 142.22,230.74 C144.05,231.46 145.22,230.48 145.56,230.37 C148.31,229.50 154.09,229.81 157.41,228.15 C165.27,226.32 166.58,225.82 167.04,225.93 C168.17,224.57 171.85,223.70 172.22,223.70 C172.53,223.53 173.00,222.95 174.44,222.96 C174.50,222.96 175.56,221.85 176.30,221.11 C176.61,220.74 179.41,220.11 179.63,220.00 C179.94,219.84 180.57,219.15 181.11,219.26 C181.11,219.26 181.48,218.15 181.48,218.15 C184.14,216.30 185.81,215.84 187.41,213.70 C188.27,212.84 189.14,211.98 190.00,211.11 C190.00,211.11 192.22,210.37 192.22,210.37 C192.22,210.37 192.59,209.26 192.59,209.26 C193.45,209.05 195.82,207.51 195.93,207.41 C196.67,207.41 198.15,206.67 198.89,205.93 C199.11,205.82 201.38,205.34 201.85,205.19 C202.18,205.07 202.26,204.56 202.59,204.44 C203.06,204.28 204.17,204.44 204.44,204.07 C205.56,202.96 207.96,202.11 208.52,202.22 C208.52,202.22 210.00,200.74 210.00,200.74 C210.00,200.74 212.96,198.52 212.96,198.52 C212.96,198.52 214.81,197.41 214.81,197.41 C214.81,197.41 215.56,195.19 215.56,195.19 C215.56,195.19 214.81,195.56 214.81,195.56" fill="none" stroke="rgb(255, 255, 255)" stroke-width="14.90" stroke-opacity="1.00" stroke-linejoin="round"/>
<path d="M205.93,191.85 C205.93,191.85 208.52,193.33 208.52,193.33 C208.52,193.33 212.22,194.81 212.22,194.81 C212.22,194.81 214.44,197.04 214.44,197.04 C216.48,198.70 219.37,201.08 219.26,201.85 C219.15,202.41 220.62,204.49 220.74,204.81 C220.88,205.19 220.90,207.27 221.48,208.52 C221.63,208.83 222.33,209.40 222.22,209.63" fill="none" stroke="rgb(0, 0, 0)" stroke-width="5.00" stroke-opacity="1.00" stroke-linejoin="round"/>
<path d="M151.11,212.59 C151.00,212.84 151.70,213.39 151.85,213.70 C151.90,213.81 151.90,223.98 151.85,224.07 C151.68,224.38 150.97,225.16 151.11,226.30 C151.19,226.93 150.49,227.45 150.37,227.78 C150.23,228.15 150.44,229.87 150.37,230.00 C150.32,230.08 149.39,230.96 148.89,231.48 C148.01,233.03 147.41,233.53 147.41,233.70 C147.39,234.20 146.88,235.65 146.67,235.93 C146.31,236.39 148.14,238.08 148.15,238.15 C148.22,238.64 148.16,239.73 148.52,240.00 C148.78,240.23 149.61,240.93 149.63,241.11 C149.87,244.51 148.83,245.80 148.89,245.93" fill="none" stroke="rgb(0, 0, 0)" stroke-width="5.00" stroke-opacity="1.00" stroke-linejoin="round"/>
<path d="M148.89,245.93 C148.89,245.93 149.26,245.93 149.26,245.93 C149.26,245.93 149.63,244.81 149.63,244.81 C151.13,243.29 153.07,240.46 153.33,239.63 C153.47,239.16 154.11,235.97 154.07,234.44 C154.06,233.74 154.07,221.20 154.07,221.11 C154.13,220.45 153.48,219.95 153.33,219.63 C153.29,219.53 153.33,214.44 153.33,213.70 C153.33,213.70 152.59,213.33 152.59,213.33" fill="none" stroke="rgb(0, 0, 0)" stroke-width="5.00" stroke-opacity="1.00" stroke-linejoin="round"/>
<path d="M108.89,254.07 C109.72,254.05 110.66,254.12 110.74,254.07 C111.04,253.89 111.68,253.22 112.22,253.33 C112.22,253.33 115.19,250.37 115.19,250.37 C115.75,250.48 118.79,248.98 118.89,248.89 C119.36,248.73 119.90,249.03 120.37,248.89 C120.70,248.78 121.48,248.15 121.85,248.15 C122.16,247.98 122.75,247.35 124.07,247.41 C126.30,247.04 128.92,246.69 129.63,246.67" fill="none" stroke="rgb(0, 0, 0)" stroke-width="5.00" stroke-opacity="1.00" stroke-linejoin="round"/>
<path d="M130.37,240.74 C130.26,241.62 130.98,242.27 131.11,242.59 C131.25,242.95 131.03,244.70 131.11,244.81 C131.31,245.10 132.66,247.75 132.59,248.52 C133.74,248.89 135.93,251.11 137.78,252.96 C138.11,253.33 138.88,253.33 139.63,253.33 C139.63,253.33 138.52,253.33 138.52,253.33" fill="none" stroke="rgb(0, 0, 0)" stroke-width="5.00" stroke-opacity="1.00" stroke-linejoin="round"/>
<path d="M65.19,260.00 C65.43,260.11 65.97,259.38 66.30,259.26 C66.68,259.12 68.41,259.34 68.52,259.26 C68.80,259.05 69.53,258.41 70.74,258.52 C71.55,258.59 73.14,257.67 73.70,257.78 C75.56,255.93 76.33,255.20 76.30,254.44 C76.28,254.21 76.28,253.72 76.30,252.96 C75.55,252.65 74.42,252.47 73.70,252.59 C73.64,252.60 73.13,253.21 72.22,254.07 C72.22,254.07 70.00,255.56 70.00,255.56 C70.00,255.56 67.78,257.04 67.78,257.04 C67.78,257.04 64.07,258.52 64.07,258.52 C64.07,258.52 63.70,260.00 63.70,260.00" fill="none" stroke="rgb(0, 0, 0)" stroke-width="5.00" stroke-opacity="1.00" stroke-linejoin="round"/>
<path d="M134.07,222.96 C134.46,223.97 129.38,226.69 129.26,226.67 C127.22,228.73 125.94,229.97 125.93,230.00 C125.91,230.06 125.95,230.96 125.93,231.48 C126.86,232.46 127.14,232.67 127.78,232.59 C128.61,232.50 131.70,232.48 132.22,232.59 C132.83,232.70 133.15,232.44 135.13,230.43 C138.14,227.41 138.28,227.36 138.89,227.41 C139.08,227.19 139.93,226.43 140.00,226.30 C140.05,226.19 139.98,225.33 140.00,224.81 C140.08,224.50 137.65,224.46 136.67,224.44 C135.23,224.42 134.10,225.29 132.59,225.19" fill="none" stroke="rgb(0, 0, 0)" stroke-width="5.00" stroke-opacity="1.00" stroke-linejoin="round"/>
</g>
</svg>
